<?xml version="1.0" encoding="UTF-8" standalone="no"?> <svg width="48" height="48" viewBox="0 0 48 48" fill="none" xmlns="http://www.w3.org/2000/svg">
<path d="M32.24 41.7299C32.3 41.8399 32.36 41.9399 32.43 42.0499C32.605 42.3368 32.8501 42.5746 33.1422 42.7408C33.4344 42.907 33.764 42.9961 34.1 42.9999H38.28C38.6161 42.9961 38.9457 42.907 39.2378 42.7408C39.53 42.5746 39.7751 42.3368 39.95 42.0499C41.9076 38.8852 42.9621 35.2452 42.9991 31.5242C43.0361 27.8031 42.0543 24.1429 40.16 20.9399C39.982 20.6407 39.8314 20.3261 39.71 19.9999C39.1846 18.729 39.1175 17.3149 39.52 15.9999C39.6792 15.5065 39.9082 15.0384 40.2 14.6099C40.6993 13.8823 40.9913 13.0327 41.0449 12.152C41.0985 11.2713 40.9117 10.3926 40.5044 9.60981C40.0972 8.82706 39.4848 8.16976 38.7328 7.70821C37.9807 7.24666 37.1174 6.99823 36.2351 6.9895C35.3528 6.98076 34.4847 7.21205 33.7237 7.65862C32.9627 8.10518 32.3374 8.75023 31.9147 9.52476C31.492 10.2993 31.2878 11.1742 31.324 12.0558C31.3602 12.9374 31.6353 13.7926 32.12 14.5299C32.4261 14.9832 32.6652 15.4783 32.83 15.9999C33.2377 17.312 33.1812 18.7245 32.67 19.9999C32.5486 20.3261 32.398 20.6407 32.22 20.9399C31.7753 21.6894 31.381 22.4678 31.04 23.2699V23.2799L32.24 41.7299Z" fill="#EAEFF0"/>
<path d="M35.09 42.0502C33.1324 38.8855 32.078 35.2455 32.041 31.5245C32.004 27.8035 32.9858 24.1432 34.88 20.9402C35.058 20.6411 35.2086 20.3265 35.33 20.0002C35.8554 18.7293 35.9226 17.3152 35.52 16.0002C35.3609 15.5068 35.1319 15.0387 34.84 14.6102C34.4017 13.9751 34.1214 13.2446 34.0223 12.4794C33.9233 11.7141 34.0083 10.9363 34.2705 10.2105C34.5326 9.48476 34.9642 8.83208 35.5294 8.30676C36.0946 7.78143 36.7771 7.39864 37.52 7.19022C37.429 7.16522 37.343 7.13022 37.25 7.11022C36.3043 6.89801 35.3167 6.97314 34.414 7.32597C33.5112 7.6788 32.7344 8.29324 32.1832 9.09051C31.632 9.88777 31.3315 10.8315 31.3202 11.8007C31.309 12.7699 31.5875 13.7204 32.12 14.5302C32.4261 14.9836 32.6652 15.4787 32.83 16.0002C33.2377 17.3124 33.1812 18.7248 32.67 20.0002C32.5486 20.3265 32.398 20.6411 32.22 20.9402C31.7753 21.6897 31.381 22.4681 31.04 23.2702V23.2802L32.24 41.7302C32.3 41.8402 32.36 41.9402 32.43 42.0502C32.605 42.3372 32.8501 42.5749 33.1422 42.7411C33.4344 42.9073 33.764 42.9965 34.1 43.0002H36.76C36.424 42.9965 36.0944 42.9073 35.8022 42.7411C35.5101 42.5749 35.265 42.3372 35.09 42.0502V42.0502Z" fill="#D9E1E2"/>
<path d="M15.76 41.73C15.7 41.84 15.64 41.94 15.57 42.05C15.3951 42.337 15.15 42.5747 14.8579 42.7409C14.5657 42.9071 14.2361 42.9962 13.9 43H9.72005C9.38397 42.9962 9.05437 42.9071 8.76224 42.7409C8.4701 42.5747 8.22502 42.337 8.05004 42.05C6.09244 38.8853 5.03803 35.2453 5.00101 31.5243C4.96399 27.8033 5.94578 24.143 7.84004 20.94C8.01995 20.6419 8.17064 20.3271 8.29004 20C8.80125 18.7246 8.85775 17.3121 8.45004 16C8.28878 15.4788 8.053 14.9837 7.75004 14.53C7.22361 13.7394 6.94506 12.8098 6.95004 11.86C6.94868 11.0972 7.12673 10.3448 7.4698 9.66358C7.81288 8.98232 8.31137 8.3913 8.92501 7.93825C9.53865 7.48519 10.2502 7.18281 11.0023 7.05552C11.7544 6.92822 12.5258 6.97959 13.2544 7.20546C13.983 7.43134 14.6482 7.8254 15.1963 8.35581C15.7445 8.88622 16.1602 9.53811 16.41 10.2588C16.6597 10.9796 16.7364 11.7489 16.6339 12.5048C16.5315 13.2606 16.2527 13.9818 15.82 14.61C15.5282 15.0385 15.2992 15.5066 15.14 16C14.7375 17.315 14.8046 18.7291 15.33 20C15.4514 20.3262 15.6021 20.6409 15.78 20.94C16.22 21.69 16.96 23.28 16.96 23.28L15.76 41.73Z" fill="#EAEFF0"/>
<path d="M11.05 42.0499C9.09244 38.8852 8.03803 35.2452 8.00101 31.5242C7.96399 27.8032 8.94578 24.1429 10.84 20.9399C11.0199 20.6418 11.1706 20.327 11.29 19.9999C11.8013 18.7245 11.8578 17.312 11.45 15.9999C11.2888 15.4787 11.053 14.9836 10.75 14.5299C10.2236 13.7393 9.94506 12.8097 9.95004 11.8599C9.95062 10.8332 10.2766 9.83319 10.8812 9.00345C11.4859 8.17371 12.3379 7.55698 13.315 7.2419C13.1691 7.19022 13.0206 7.14616 12.87 7.1099C12.1589 6.95269 11.4216 6.95702 10.7123 7.12257C10.0031 7.28811 9.33999 7.61066 8.77193 8.06645C8.20387 8.52224 7.7453 9.09966 7.42999 9.75618C7.11468 10.4127 6.95067 11.1316 6.95004 11.8599C6.94506 12.8097 7.22361 13.7393 7.75004 14.5299C8.053 14.9836 8.28878 15.4787 8.45004 15.9999C8.85775 17.312 8.80125 18.7245 8.29004 19.9999C8.17064 20.327 8.01995 20.6418 7.84004 20.9399C5.94578 24.1429 4.96399 27.8032 5.00101 31.5242C5.03803 35.2452 6.09244 38.8852 8.05004 42.0499C8.22502 42.3369 8.4701 42.5746 8.76224 42.7408C9.05437 42.907 9.38397 42.9961 9.72005 42.9999H12.72C12.384 42.9961 12.0544 42.907 11.7622 42.7408C11.4701 42.5746 11.225 42.3369 11.05 42.0499V42.0499Z" fill="#D9E1E2"/>
<path d="M18.04 22.5801C18.4178 21.5605 18.8725 20.571 19.4 19.6201C19.6842 19.1061 19.9122 18.563 20.08 18.0001C20.4741 16.702 20.5258 15.3241 20.23 14.0001C20.0738 13.2519 19.8005 12.5331 19.42 11.8701C18.9649 11.0794 18.7268 10.1825 18.73 9.27014C18.7289 8.46511 18.9122 7.67051 19.2658 6.94731C19.6194 6.2241 20.134 5.5915 20.7701 5.09804C21.4061 4.60458 22.1468 4.26337 22.9352 4.10059C23.7236 3.9378 24.5388 3.95777 25.3183 4.15895C26.0978 4.36013 26.8208 4.73719 27.432 5.2612C28.0431 5.7852 28.5261 6.44223 28.8439 7.18188C29.1617 7.92153 29.3059 8.72415 29.2653 9.52816C29.2248 10.3322 29.0006 11.1162 28.61 11.8201C28.2242 12.5026 27.938 13.2367 27.76 14.0001C27.4293 15.3189 27.4708 16.7036 27.88 18.0001C28.0265 18.4991 28.2312 18.9791 28.49 19.4301C29.0721 20.4346 29.5641 21.4888 29.96 22.5801H18.04Z" fill="#EAEFF0"/>
<path d="M19.4 19.6199C18.8725 20.5707 18.4178 21.5602 18.04 22.5799H21.214C21.5542 21.7086 21.9504 20.8601 22.4 20.0399C22.6842 19.5259 22.9122 18.9827 23.08 18.4199C23.4741 17.1218 23.5258 15.7439 23.23 14.4199C23.0738 13.6717 22.8005 12.9528 22.42 12.2899C21.9649 11.4992 21.7268 10.6022 21.73 9.68988C21.7306 8.43177 22.1819 7.21548 23.0021 6.2615C23.8223 5.30753 24.9572 4.67901 26.201 4.48988C25.7081 4.25733 25.1811 4.1054 24.64 4.03989C23.8995 3.94879 23.148 4.01609 22.4354 4.23733C21.7228 4.45856 21.0653 4.82868 20.5065 5.32316C19.9478 5.81765 19.5004 6.42521 19.1942 7.10562C18.8879 7.78602 18.7297 8.52373 18.73 9.26989C18.7268 10.1822 18.9649 11.0792 19.42 11.8699C19.8005 12.5328 20.0738 13.2517 20.23 13.9999C20.5258 15.3239 20.4741 16.7018 20.08 17.9999C19.9122 18.5627 19.6842 19.1059 19.4 19.6199V19.6199Z" fill="#D9E1E2"/>
<path d="M24 45C30.6274 45 36 39.6274 36 33C36 26.3726 30.6274 21 24 21C17.3726 21 12 26.3726 12 33C12 39.6274 17.3726 45 24 45Z" fill="#2D4A60"/>
<path d="M26.0001 42C23.5919 42.0019 21.2498 41.2129 19.3336 39.7542C17.4174 38.2955 16.0333 36.2479 15.394 33.9261C14.7547 31.6044 14.8955 29.1369 15.7949 26.9029C16.6943 24.669 18.3024 22.7922 20.3721 21.561C18.4083 22.1841 16.638 23.3022 15.2317 24.8078C13.8253 26.3134 12.8303 28.1557 12.3423 30.1573C11.8544 32.159 11.8901 34.2525 12.4459 36.2364C13.0017 38.2203 14.0589 40.0277 15.5157 41.4845C16.9725 42.9413 18.7799 43.9985 20.7638 44.5543C22.7476 45.1101 24.8412 45.1457 26.8428 44.6578C28.8445 44.1699 30.6868 43.1749 32.1924 41.7685C33.698 40.3621 34.8161 38.5918 35.4391 36.628C34.4663 38.2647 33.0847 39.6204 31.43 40.5621C29.7752 41.5039 27.9041 41.9994 26.0001 42V42Z" fill="#263F52"/>
<path d="M24 28.25C24.8284 28.25 25.5 27.5784 25.5 26.75C25.5 25.9216 24.8284 25.25 24 25.25C23.1716 25.25 22.5 25.9216 22.5 26.75C22.5 27.5784 23.1716 28.25 24 28.25Z" fill="#263F52"/>
<path d="M20.5 33.75C21.3284 33.75 22 33.0784 22 32.25C22 31.4216 21.3284 30.75 20.5 30.75C19.6716 30.75 19 31.4216 19 32.25C19 33.0784 19.6716 33.75 20.5 33.75Z" fill="#263F52"/>
<path d="M27.5 33.75C28.3284 33.75 29 33.0784 29 32.25C29 31.4216 28.3284 30.75 27.5 30.75C26.6716 30.75 26 31.4216 26 32.25C26 33.0784 26.6716 33.75 27.5 33.75Z" fill="#263F52"/>
<path d="M41.0179 20.426C40.8671 20.1715 40.7399 19.9037 40.6379 19.626C40.2002 18.5737 40.1408 17.4022 40.4699 16.311C40.5991 15.9088 40.7853 15.5273 41.0229 15.178C41.8228 14.0155 42.1766 12.6035 42.0192 11.2012C41.8618 9.79889 41.2039 8.50042 40.1662 7.54418C39.1285 6.58793 37.7807 6.0381 36.3702 5.99564C34.9597 5.95317 33.5813 6.42091 32.4879 7.31299C31.3579 8.22837 30.609 9.53161 30.3872 10.9689C30.1654 12.4061 30.4865 13.8745 31.2879 15.088C31.5411 15.4617 31.7385 15.8704 31.8739 16.301C32.212 17.4 32.1616 18.5819 31.7309 19.648C31.6304 19.9216 31.5042 20.1852 31.3539 20.435C31.1029 20.864 30.8759 21.28 30.6699 21.688C30.3015 20.7402 29.8633 19.821 29.3589 18.938C29.1334 18.5452 28.9554 18.1269 28.8289 17.692C28.4754 16.5665 28.4407 15.365 28.7289 14.221C28.8862 13.5507 29.1381 12.9063 29.4769 12.307C29.9427 11.47 30.2104 10.5374 30.2596 9.58074C30.3088 8.62413 30.1382 7.66897 29.7607 6.78859C29.3833 5.9082 28.8092 5.12602 28.0824 4.50209C27.3556 3.87815 26.4954 3.42907 25.5681 3.18931C24.6407 2.94955 23.6707 2.92549 22.7326 3.11898C21.7944 3.31247 20.9131 3.71837 20.1563 4.30551C19.3994 4.89264 18.7872 5.6454 18.3666 6.50599C17.946 7.36658 17.7282 8.31211 17.7299 9.26999C17.7279 10.355 18.0107 11.4215 18.5499 12.363C18.8804 12.9416 19.1167 13.5691 19.2499 14.222C19.507 15.3763 19.4615 16.5774 19.1179 17.709C18.9709 18.2052 18.7697 18.6838 18.5179 19.136C18.0652 19.9605 17.6644 20.8125 17.3179 21.687C17.1109 21.278 16.8819 20.859 16.6269 20.424C16.4759 20.1697 16.3491 19.9019 16.2479 19.624C15.8096 18.5718 15.7502 17.4001 16.0799 16.309C16.2092 15.9067 16.3958 15.5251 16.6339 15.176C17.1571 14.4192 17.4947 13.5499 17.6196 12.6384C17.7445 11.7269 17.6531 10.7988 17.3528 9.92923C17.0525 9.05962 16.5518 8.2729 15.891 7.6327C15.2303 6.99251 14.4282 6.51682 13.5495 6.24411C12.6709 5.9714 11.7404 5.90933 10.8333 6.06292C9.92617 6.21651 9.06796 6.58145 8.32806 7.12821C7.58816 7.67498 6.98734 8.38822 6.5742 9.21024C6.16106 10.0323 5.9472 10.94 5.94992 11.86C5.94452 13.0086 6.28229 14.1326 6.91992 15.088C7.17056 15.462 7.36591 15.8702 7.49992 16.3C7.83815 17.4025 7.78695 18.5878 7.35492 19.657C7.25595 19.926 7.13137 20.1848 6.98292 20.43C4.99555 23.7902 3.96522 27.63 4.00347 31.5337C4.04172 35.4375 5.14709 39.2564 7.19992 42.577C7.46587 43.0074 7.83638 43.3636 8.27698 43.6124C8.71758 43.8612 9.21395 43.9946 9.71992 44H13.8999C14.658 43.9944 15.3853 43.6993 15.9329 43.175C18.224 45.0042 21.0687 46.0005 24.0004 46.0005C26.9321 46.0005 29.7768 45.0042 32.0679 43.175C32.6151 43.6993 33.3421 43.9945 34.0999 44H38.2799C38.786 43.9945 39.2824 43.861 39.723 43.612C40.1636 43.363 40.5341 43.0066 40.7999 42.576C42.8533 39.255 43.959 35.4356 43.9973 31.5312C44.0355 27.6269 43.0049 23.7865 41.0169 20.426H41.0179ZM33.7489 8.86599C34.2753 8.43573 34.9059 8.15196 35.577 8.04333C36.2481 7.9347 36.936 8.00506 37.5712 8.2473C38.2064 8.48954 38.7665 8.89509 39.1948 9.423C39.6232 9.95091 39.9047 10.5825 40.0109 11.254C40.1648 12.2322 39.9367 13.2322 39.3739 14.047C39.0267 14.5557 38.7546 15.1117 38.5659 15.698C38.5349 15.798 38.5259 15.898 38.4999 15.998H33.8509C33.8239 15.898 33.8149 15.798 33.7839 15.698C33.5912 15.088 33.312 14.5087 32.9549 13.978C32.4288 13.1791 32.2188 12.2131 32.3655 11.2678C32.5123 10.3226 33.0054 9.46577 33.7489 8.86399V8.86599ZM20.2729 20.107C20.8103 19.1451 21.1637 18.0914 21.3149 17H26.6349C26.6932 17.4319 26.7879 17.8581 26.9179 18.274C27.0875 18.8526 27.3248 19.4091 27.6249 19.932C27.7559 20.158 27.8679 20.399 27.9909 20.632C25.3966 19.7874 22.6012 19.7874 20.0069 20.632C20.0999 20.459 20.1779 20.28 20.2729 20.107ZM21.1659 6.07599C21.6183 5.67152 22.1524 5.36906 22.732 5.1891C23.3115 5.00914 23.923 4.9559 24.5249 5.03299C25.2183 5.11723 25.8803 5.3706 26.4528 5.77079C27.0253 6.17099 27.4906 6.70575 27.8079 7.32801C28.1251 7.95028 28.2846 8.64099 28.2722 9.33935C28.2598 10.0377 28.076 10.7223 27.7369 11.333C27.3065 12.0944 26.9869 12.9133 26.7879 13.765C26.692 14.1714 26.6251 14.5841 26.5879 15H21.3879C21.3582 14.5963 21.2994 14.1952 21.2119 13.8C21.0332 12.9461 20.721 12.1257 20.2869 11.369C19.9206 10.7299 19.7289 10.0056 19.7309 9.26899C19.7313 8.66565 19.8594 8.06922 20.1067 7.51891C20.354 6.96859 20.715 6.47685 21.1659 6.07599V6.07599ZM9.37792 8.86199C9.90482 8.43267 10.5357 8.15005 11.2068 8.04269C11.878 7.93532 12.5655 8.00701 13.2001 8.25052C13.8346 8.49403 14.3936 8.90072 14.8206 9.4295C15.2476 9.95827 15.5275 10.5904 15.6319 11.262C15.7908 12.2365 15.5642 13.2347 14.9999 14.045C14.6518 14.5538 14.3796 15.1107 14.1919 15.698C14.1599 15.798 14.1509 15.898 14.1249 15.998H9.47092C9.44392 15.898 9.43492 15.798 9.40392 15.698C9.21424 15.0855 8.93669 14.5038 8.57992 13.971C8.1646 13.3449 7.94526 12.6093 7.94992 11.858C7.94936 11.2837 8.07731 10.7166 8.32441 10.1982C8.5715 9.67975 8.93146 9.22321 9.37792 8.86199V8.86199ZM9.71992 42C9.55413 41.9959 9.39206 41.9501 9.24871 41.8667C9.10537 41.7833 8.98539 41.6651 8.89992 41.523C7.04003 38.5139 6.03828 35.0536 6.00303 31.5164C5.96778 27.9791 6.90037 24.4995 8.69992 21.454C8.90882 21.1097 9.08397 20.746 9.22292 20.368C9.51943 19.6122 9.68481 18.8114 9.71192 18H13.8859C13.9195 18.8073 14.0913 19.6028 14.3939 20.352C14.5349 20.7313 14.71 21.0972 14.9169 21.445C15.2309 21.981 15.4889 22.486 15.7249 22.982C14.3607 24.1041 13.2404 25.4934 12.4328 27.0644C11.6252 28.6354 11.1474 30.355 11.0287 32.1174C10.9101 33.8799 11.153 35.648 11.7428 37.3131C12.3325 38.9782 13.2565 40.5051 14.4579 41.8C14.2986 41.9256 14.1027 41.9958 13.8999 42H9.71992ZM12.9999 33C12.9999 30.8244 13.6451 28.6977 14.8538 26.8887C16.0624 25.0798 17.7804 23.6699 19.7904 22.8373C21.8004 22.0047 24.0121 21.7869 26.1459 22.2113C28.2797 22.6358 30.2397 23.6834 31.7781 25.2218C33.3165 26.7602 34.3641 28.7202 34.7886 30.854C35.213 32.9878 34.9952 35.1995 34.1626 37.2095C33.33 39.2195 31.9201 40.9375 30.1112 42.1461C28.3022 43.3548 26.1755 44 23.9999 44C21.0836 43.9965 18.2877 42.8365 16.2255 40.7744C14.1634 38.7122 13.0034 35.9163 12.9999 33V33ZM39.0999 41.522C39.0145 41.6642 38.8946 41.7826 38.7512 41.8661C38.6079 41.9497 38.4458 41.9957 38.2799 42H34.0999C33.8971 41.9959 33.7012 41.9257 33.5419 41.8C34.7432 40.5052 35.667 38.9784 36.2566 37.3135C36.8462 35.6486 37.0892 33.8807 36.9705 32.1185C36.8518 30.3562 36.3741 28.6369 35.5666 27.066C34.7591 25.4952 33.6389 24.106 32.2749 22.984C32.5099 22.484 32.7669 21.984 33.0749 21.458C33.2822 21.1119 33.4576 20.7478 33.5989 20.37C33.897 19.6138 34.0638 18.8123 34.0919 18H38.2669C38.3002 18.8071 38.4714 19.6026 38.7729 20.352C38.9156 20.7336 39.092 21.1017 39.2999 21.452C41.1002 24.498 42.0333 27.9783 41.998 31.5164C41.9628 35.0544 40.9606 38.5155 39.0999 41.525V41.522Z" fill="black"/>
<path d="M26.5 26.75C26.5 26.2555 26.3534 25.7722 26.0787 25.3611C25.804 24.95 25.4135 24.6295 24.9567 24.4403C24.4999 24.2511 23.9972 24.2016 23.5123 24.298C23.0273 24.3945 22.5819 24.6326 22.2322 24.9822C21.8826 25.3319 21.6445 25.7773 21.548 26.2623C21.4516 26.7472 21.5011 27.2499 21.6903 27.7067C21.8795 28.1635 22.2 28.554 22.6111 28.8287C23.0222 29.1034 23.5055 29.25 24 29.25C24.663 29.25 25.2989 28.9866 25.7678 28.5178C26.2366 28.0489 26.5 27.413 26.5 26.75V26.75ZM24 27.25C23.9011 27.25 23.8044 27.2207 23.7222 27.1657C23.64 27.1108 23.5759 27.0327 23.5381 26.9413C23.5002 26.85 23.4903 26.7494 23.5096 26.6525C23.5289 26.5555 23.5765 26.4664 23.6464 26.3964C23.7164 26.3265 23.8055 26.2789 23.9025 26.2596C23.9994 26.2403 24.1 26.2502 24.1913 26.2881C24.2827 26.3259 24.3608 26.39 24.4157 26.4722C24.4707 26.5544 24.5 26.6511 24.5 26.75C24.5 26.8826 24.4473 27.0098 24.3536 27.1036C24.2598 27.1973 24.1326 27.25 24 27.25Z" fill="black"/>
<path d="M20.5 29.75C20.0055 29.75 19.5222 29.8966 19.1111 30.1713C18.7 30.446 18.3795 30.8365 18.1903 31.2933C18.0011 31.7501 17.9516 32.2528 18.048 32.7377C18.1445 33.2227 18.3826 33.6681 18.7322 34.0178C19.0819 34.3674 19.5273 34.6055 20.0123 34.702C20.4972 34.7984 20.9999 34.7489 21.4567 34.5597C21.9135 34.3705 22.304 34.0501 22.5787 33.6389C22.8534 33.2278 23 32.7445 23 32.25C23 31.587 22.7366 30.9511 22.2678 30.4822C21.7989 30.0134 21.163 29.75 20.5 29.75V29.75ZM20.5 32.75C20.4011 32.75 20.3044 32.7207 20.2222 32.6657C20.14 32.6108 20.0759 32.5327 20.0381 32.4413C20.0002 32.35 19.9903 32.2494 20.0096 32.1525C20.0289 32.0555 20.0765 31.9664 20.1464 31.8964C20.2164 31.8265 20.3055 31.7789 20.4025 31.7596C20.4994 31.7403 20.6 31.7502 20.6913 31.7881C20.7827 31.8259 20.8608 31.89 20.9157 31.9722C20.9707 32.0544 21 32.1511 21 32.25C21 32.3826 20.9473 32.5098 20.8536 32.6036C20.7598 32.6973 20.6326 32.75 20.5 32.75Z" fill="black"/>
<path d="M27.5 29.75C27.0055 29.75 26.5222 29.8966 26.1111 30.1713C25.7 30.446 25.3795 30.8365 25.1903 31.2933C25.0011 31.7501 24.9516 32.2528 25.048 32.7377C25.1445 33.2227 25.3826 33.6681 25.7322 34.0178C26.0819 34.3674 26.5273 34.6055 27.0123 34.702C27.4972 34.7984 27.9999 34.7489 28.4567 34.5597C28.9135 34.3705 29.304 34.0501 29.5787 33.6389C29.8534 33.2278 30 32.7445 30 32.25C30 31.587 29.7366 30.9511 29.2678 30.4822C28.7989 30.0134 28.163 29.75 27.5 29.75ZM27.5 32.75C27.4011 32.75 27.3044 32.7207 27.2222 32.6657C27.14 32.6108 27.0759 32.5327 27.0381 32.4413C27.0002 32.35 26.9903 32.2494 27.0096 32.1525C27.0289 32.0555 27.0765 31.9664 27.1464 31.8964C27.2164 31.8265 27.3055 31.7789 27.4025 31.7596C27.4994 31.7403 27.6 31.7502 27.6913 31.7881C27.7827 31.8259 27.8608 31.89 27.9157 31.9722C27.9707 32.0544 28 32.1511 28 32.25C28 32.3826 27.9473 32.5098 27.8536 32.6036C27.7598 32.6973 27.6326 32.75 27.5 32.75Z" fill="black"/>
</svg>
