<?xml version="1.0" encoding="UTF-8" standalone="no"?> <svg width="48" height="48" viewBox="0 0 48 48" fill="none" xmlns="http://www.w3.org/2000/svg">
<path d="M24 46C36.1503 46 46 36.1503 46 24C46 11.8497 36.1503 2 24 2C11.8497 2 2 11.8497 2 24C2 36.1503 11.8497 46 24 46Z" fill="#EAEFF0"/>
<path d="M24 38C31.732 38 38 31.732 38 24C38 16.268 31.732 10 24 10C16.268 10 10 16.268 10 24C10 31.732 16.268 38 24 38Z" fill="#CDD3D3"/>
<path d="M17.23 31.26L18.23 45.23C16.37 44.7362 14.5867 43.9892 12.93 43.01L13.77 31.26C12.3998 30.8817 11.1914 30.0646 10.3299 28.934C9.46836 27.8033 9.00121 26.4215 9 25C9 21.41 10.5 14 15.5 14C20.5 14 22 21.41 22 25C21.9988 26.4215 21.5316 27.8033 20.6701 28.934C19.8086 30.0646 18.6002 30.8817 17.23 31.26V31.26Z" fill="#2D4A60"/>
<path d="M22 25.056C20.8864 25.6123 19.6693 25.9309 18.4259 25.9915C17.1826 26.0521 15.9402 25.8533 14.7778 25.4079C13.6154 24.9625 12.5584 24.2802 11.6738 23.4043C10.7893 22.5284 10.0967 21.478 9.64 20.32C9.23526 21.8478 9.02031 23.4196 9 25C9.00121 26.4215 9.46836 27.8034 10.3299 28.934C11.1914 30.0646 12.3998 30.8817 13.77 31.26L12.93 43.01C14.5867 43.9892 16.37 44.7362 18.23 45.23L17.23 31.26C18.5916 30.8853 19.7939 30.0769 20.6547 28.9574C21.5155 27.8378 21.9878 26.4682 22 25.056V25.056Z" fill="#263F52"/>
<path d="M37 14C36.7348 14 36.4804 14.1054 36.2929 14.2929C36.1054 14.4804 36 14.7348 36 15V20.75C36 21.0815 35.8683 21.3995 35.6339 21.6339C35.3995 21.8683 35.0815 22 34.75 22C34.4185 22 34.1005 21.8683 33.8661 21.6339C33.6317 21.3995 33.5 21.0815 33.5 20.75V15C33.5 14.7348 33.3946 14.4804 33.2071 14.2929C33.0196 14.1054 32.7652 14 32.5 14C32.2348 14 31.9804 14.1054 31.7929 14.2929C31.6054 14.4804 31.5 14.7348 31.5 15V20.75C31.5 21.0815 31.3683 21.3995 31.1339 21.6339C30.8995 21.8683 30.5815 22 30.25 22V22C29.9185 22 29.6005 21.8683 29.3661 21.6339C29.1317 21.3995 29 21.0815 29 20.75V15C29 14.7348 28.8946 14.4804 28.7071 14.2929C28.5196 14.1054 28.2652 14 28 14C27.7348 14 27.4804 14.1054 27.2929 14.2929C27.1054 14.4804 27 14.7348 27 15V25C26.9997 26.127 27.3811 27.2209 28.0821 28.1035C28.783 28.986 29.7622 29.6051 30.86 29.86L29.77 45.23C31.63 44.7362 33.4133 43.9892 35.07 43.01L34.14 29.86C35.2378 29.6051 36.217 28.986 36.9179 28.1035C37.6189 27.2209 38.0003 26.127 38 25V15C38 14.7348 37.8946 14.4804 37.7071 14.2929C37.5196 14.1054 37.2652 14 37 14Z" fill="#2D4A60"/>
<path d="M37.957 25.493C35.9096 26.2124 33.6708 26.1648 31.6558 25.359C29.6409 24.5532 27.9866 23.0438 27 21.111V25C26.9997 26.127 27.3811 27.2209 28.0821 28.1034C28.783 28.986 29.7622 29.6051 30.86 29.86L29.77 45.23C31.63 44.7362 33.4133 43.9892 35.07 43.01L34.14 29.86C35.1528 29.6223 36.0657 29.0733 36.7504 28.29C37.435 27.5067 37.857 26.5285 37.957 25.493V25.493Z" fill="#263F52"/>
</svg>
