<?xml version="1.0" encoding="UTF-8" standalone="no"?> <svg width="48" height="48" viewBox="0 0 48 48" fill="none" xmlns="http://www.w3.org/2000/svg">
<path d="M40 32C39.7348 32 39.4804 32.1054 39.2929 32.2929C39.1054 32.4804 39 32.7348 39 33C39 33.2652 39.1054 33.5196 39.2929 33.7071C39.4804 33.8946 39.7348 34 40 34C40.7956 34 41.5587 34.3161 42.1213 34.8787C42.6839 35.4413 43 36.2044 43 37C43 37.7956 42.6839 38.5587 42.1213 39.1213C41.5587 39.6839 40.7956 40 40 40H32V34C32 33.7348 31.8946 33.4804 31.7071 33.2929C31.5196 33.1054 31.2652 33 31 33C30.7348 33 30.4804 33.1054 30.2929 33.2929C30.1054 33.4804 30 33.7348 30 34V40H12V34C12 33.7348 11.8946 33.4804 11.7071 33.2929C11.5196 33.1054 11.2652 33 11 33C10.7348 33 10.4804 33.1054 10.2929 33.2929C10.1054 33.4804 10 33.7348 10 34V40H5C4.73478 40 4.48043 40.1054 4.29289 40.2929C4.10536 40.4804 4 40.7348 4 41C4 41.2652 4.10536 41.5196 4.29289 41.7071C4.48043 41.8946 4.73478 42 5 42H40C41.3261 42 42.5979 41.4732 43.5355 40.5355C44.4732 39.5979 45 38.3261 45 37C45 35.6739 44.4732 34.4021 43.5355 33.4645C42.5979 32.5268 41.3261 32 40 32Z" fill="#2D4A60"/>
<path d="M40 32C39.7348 32 39.4804 32.1054 39.2929 32.2929C39.1054 32.4804 39 32.7348 39 33C39 33.2652 39.1054 33.5196 39.2929 33.7071C39.4804 33.8946 39.7348 34 40 34C40.6085 34.0014 41.2022 34.1878 41.7023 34.5345C42.2024 34.8811 42.5852 35.3717 42.8 35.941C43.4618 35.8523 44.1041 35.6532 44.7 35.352C44.3603 34.3753 43.7256 33.5282 42.8837 32.9277C42.0417 32.3273 41.0341 32.0031 40 32V32Z" fill="#263F52"/>
<path d="M12 36V34C12 33.7348 11.8946 33.4804 11.7071 33.2929C11.5196 33.1054 11.2652 33 11 33C10.7348 33 10.4804 33.1054 10.2929 33.2929C10.1054 33.4804 10 33.7348 10 34V36H12Z" fill="#263F52"/>
<path d="M32 36V34C32 33.7348 31.8946 33.4804 31.7071 33.2929C31.5196 33.1054 31.2652 33 31 33C30.7348 33 30.4804 33.1054 30.2929 33.2929C30.1054 33.4804 30 33.7348 30 34V36H32Z" fill="#263F52"/>
<path d="M5 8V16.085C5.0001 17.9926 4.48162 19.8643 3.5 21.5V21.5C2.51838 23.1357 1.9999 25.0074 2 26.915V30C2 31.0609 2.42143 32.0783 3.17157 32.8284C3.92172 33.5786 4.93913 34 6 34H42C43.0609 34 44.0783 33.5786 44.8284 32.8284C45.5786 32.0783 46 31.0609 46 30V29C46 26.8783 45.1571 24.8434 43.6569 23.3431C42.1566 21.8429 40.1217 21 38 21H35.243C33.8979 21.0001 32.5659 20.7352 31.3231 20.2204C30.0803 19.7057 28.9511 18.9512 28 18C27.0488 17.0489 26.2943 15.9197 25.7796 14.6769C25.2648 13.4341 24.9999 12.1021 25 10.757V8C25 7.46957 24.7893 6.96086 24.4142 6.58579C24.0391 6.21071 23.5304 6 23 6H7C6.46957 6 5.96086 6.21071 5.58579 6.58579C5.21071 6.96086 5 7.46957 5 8V8Z" fill="#009AE0"/>
<path d="M25.25 13H21C20.7348 13 20.4804 12.8946 20.2929 12.7071C20.1054 12.5196 20 12.2652 20 12C20 11.7348 20.1054 11.4804 20.2929 11.2929C20.4804 11.1054 20.7348 11 21 11H25C25.0173 11.6733 25.101 12.3432 25.25 13V13Z" fill="#EAEFF0"/>
<path d="M26.66 16.35L22.76 18.01C22.6328 18.0614 22.4972 18.0885 22.36 18.09C22.1643 18.0874 21.9734 18.0285 21.8103 17.9204C21.6471 17.8122 21.5186 17.6593 21.44 17.48C21.3368 17.236 21.3346 16.961 21.434 16.7154C21.5334 16.4697 21.7261 16.2736 21.97 16.17L25.74 14.57C25.75 14.61 25.77 14.64 25.78 14.68C26.0233 15.2616 26.3178 15.8205 26.66 16.35V16.35Z" fill="#EAEFF0"/>
<path d="M29.43 19.19L26.62 22.26C26.5265 22.3636 26.4124 22.4465 26.2849 22.5033C26.1575 22.5601 26.0196 22.5897 25.88 22.59C25.6849 22.5913 25.4936 22.5355 25.3297 22.4295C25.1659 22.3234 25.0367 22.1717 24.958 21.9931C24.8794 21.8145 24.8547 21.6168 24.887 21.4243C24.9194 21.2319 25.0073 21.0531 25.14 20.91L27.9 17.9C27.9358 17.9308 27.9692 17.9642 28 18C28.4392 18.4396 28.9179 18.838 29.43 19.19V19.19Z" fill="#EAEFF0"/>
<path d="M33.19 20.79L32.18 24.34C32.1196 24.5487 31.9937 24.7324 31.8208 24.8638C31.6479 24.9953 31.4372 25.0676 31.22 25.07C31.1252 25.0708 31.0308 25.0573 30.94 25.03C30.8139 24.9951 30.696 24.9353 30.5933 24.8542C30.4905 24.7731 30.405 24.6724 30.3417 24.5578C30.2783 24.4433 30.2385 24.3173 30.2245 24.1872C30.2105 24.057 30.2225 23.9254 30.26 23.8L31.28 20.2C31.8955 20.4598 32.5353 20.6574 33.19 20.79V20.79Z" fill="#EAEFF0"/>
<path d="M7 31.643V28.343C7.00004 26.2997 7.55551 24.2949 8.607 22.543C9.65821 20.7909 10.2137 18.7862 10.214 16.743V8.143C10.214 7.86158 10.2694 7.58291 10.3771 7.32291C10.4848 7.06291 10.6427 6.82667 10.8417 6.62767C11.2436 6.22578 11.7886 6 12.357 6H7C6.46957 6 5.96086 6.21071 5.58579 6.58579C5.21071 6.96086 5 7.46957 5 8V16.085C5.0001 17.9926 4.48162 19.8643 3.5 21.5C2.51838 23.1357 1.9999 25.0074 2 26.915V30C2 31.0609 2.42143 32.0783 3.17157 32.8284C3.92172 33.5786 4.93913 34 6 34H7.711C7.24725 33.3014 6.99992 32.4815 7 31.643Z" fill="#0081BD"/>
<path d="M14.311 29.155L11.689 27.845C10.5782 27.2892 9.35312 26.9999 8.111 27H2V30C2 31.0609 2.42143 32.0783 3.17157 32.8284C3.92172 33.5786 4.93913 34 6 34H42C43.0609 34 44.0783 33.5786 44.8284 32.8284C45.5786 32.0783 46 31.0609 46 30H17.889C16.6469 30.0001 15.4218 29.7108 14.311 29.155V29.155Z" fill="#EAEFF0"/>
<path d="M7 31.643V28.343C7.00353 27.8939 7.03391 27.4455 7.091 27H2V30C2 31.0609 2.42143 32.0783 3.17157 32.8284C3.92172 33.5786 4.93913 34 6 34H7.711C7.24725 33.3014 6.99992 32.4815 7 31.643Z" fill="#CDD3D3"/>
</svg>
