<?xml version="1.0" encoding="UTF-8" standalone="no"?> <svg width="48" height="48" viewBox="0 0 48 48" fill="none" xmlns="http://www.w3.org/2000/svg">
<path d="M43 9H5C4.20435 9 3.44129 9.31607 2.87868 9.87868C2.31607 10.4413 2 11.2044 2 12V35C2.00159 36.3256 2.52888 37.5964 3.46622 38.5338C4.40356 39.4711 5.6744 39.9984 7 40H18.176C18.815 39.9891 19.439 40.1942 19.947 40.582C21.0983 41.5003 22.5273 42.0003 24 42.0003C25.4727 42.0003 26.9017 41.5003 28.053 40.582C28.561 40.1942 29.185 39.9891 29.824 40H41C42.3256 39.9984 43.5964 39.4711 44.5338 38.5338C45.4711 37.5964 45.9984 36.3256 46 35V12C46 11.2044 45.6839 10.4413 45.1213 9.87868C44.5587 9.31607 43.7956 9 43 9Z" fill="#009AE0"/>
<path d="M40 33H8.00001L3.01401 37.986C3.47583 38.6088 4.07665 39.1151 4.76864 39.4648C5.46064 39.8144 6.2247 39.9977 7.00001 40H18.176C18.815 39.9891 19.439 40.1942 19.947 40.582C21.0983 41.5003 22.5273 42.0003 24 42.0003C25.4727 42.0003 26.9017 41.5003 28.053 40.582C28.561 40.1942 29.185 39.9891 29.824 40H41C41.7753 39.9977 42.5394 39.8144 43.2314 39.4648C43.9234 39.1151 44.5242 38.6088 44.986 37.986L40 33Z" fill="#0081BD"/>
<path d="M39 6H29.422C27.645 5.99834 25.9075 6.5246 24.43 7.512L24 7.8L23.57 7.514C22.0928 6.52589 20.3553 5.99893 18.578 6H9C8.20435 6 7.44129 6.31607 6.87868 6.87868C6.31607 7.44129 6 8.20435 6 9V33C6 33.7957 6.31607 34.5587 6.87868 35.1213C7.44129 35.6839 8.20435 36 9 36H18.578C19.9602 35.999 21.3116 36.4083 22.461 37.176L23.445 37.832C23.6093 37.9416 23.8025 38.0002 24 38.0002C24.1975 38.0002 24.3907 37.9416 24.555 37.832L25.539 37.176C26.6884 36.4083 28.0398 35.999 29.422 36H39C39.7956 36 40.5587 35.6839 41.1213 35.1213C41.6839 34.5587 42 33.7957 42 33V9C42 8.20435 41.6839 7.44129 41.1213 6.87868C40.5587 6.31607 39.7956 6 39 6Z" fill="#EAEFF0"/>
<path d="M20 15H10C9.73478 15 9.48043 14.8946 9.29289 14.7071C9.10536 14.5196 9 14.2652 9 14C9 13.7348 9.10536 13.4804 9.29289 13.2929C9.48043 13.1054 9.73478 13 10 13H20C20.2652 13 20.5196 13.1054 20.7071 13.2929C20.8946 13.4804 21 13.7348 21 14C21 14.2652 20.8946 14.5196 20.7071 14.7071C20.5196 14.8946 20.2652 15 20 15Z" fill="#8FA5A5"/>
<path d="M38 15H28C27.7348 15 27.4804 14.8946 27.2929 14.7071C27.1054 14.5196 27 14.2652 27 14C27 13.7348 27.1054 13.4804 27.2929 13.2929C27.4804 13.1054 27.7348 13 28 13H38C38.2652 13 38.5196 13.1054 38.7071 13.2929C38.8946 13.4804 39 13.7348 39 14C39 14.2652 38.8946 14.5196 38.7071 14.7071C38.5196 14.8946 38.2652 15 38 15Z" fill="#8FA5A5"/>
<path d="M20 20H10C9.73478 20 9.48043 19.8946 9.29289 19.7071C9.10536 19.5196 9 19.2652 9 19C9 18.7348 9.10536 18.4804 9.29289 18.2929C9.48043 18.1054 9.73478 18 10 18H20C20.2652 18 20.5196 18.1054 20.7071 18.2929C20.8946 18.4804 21 18.7348 21 19C21 19.2652 20.8946 19.5196 20.7071 19.7071C20.5196 19.8946 20.2652 20 20 20Z" fill="#8FA5A5"/>
<path d="M38 20H28C27.7348 20 27.4804 19.8946 27.2929 19.7071C27.1054 19.5196 27 19.2652 27 19C27 18.7348 27.1054 18.4804 27.2929 18.2929C27.4804 18.1054 27.7348 18 28 18H38C38.2652 18 38.5196 18.1054 38.7071 18.2929C38.8946 18.4804 39 18.7348 39 19C39 19.2652 38.8946 19.5196 38.7071 19.7071C38.5196 19.8946 38.2652 20 38 20Z" fill="#8FA5A5"/>
<path d="M20 25H10C9.73478 25 9.48043 24.8946 9.29289 24.7071C9.10536 24.5196 9 24.2652 9 24C9 23.7348 9.10536 23.4804 9.29289 23.2929C9.48043 23.1054 9.73478 23 10 23H20C20.2652 23 20.5196 23.1054 20.7071 23.2929C20.8946 23.4804 21 23.7348 21 24C21 24.2652 20.8946 24.5196 20.7071 24.7071C20.5196 24.8946 20.2652 25 20 25Z" fill="#8FA5A5"/>
<path d="M38 25H28C27.7348 25 27.4804 24.8946 27.2929 24.7071C27.1054 24.5196 27 24.2652 27 24C27 23.7348 27.1054 23.4804 27.2929 23.2929C27.4804 23.1054 27.7348 23 28 23H38C38.2652 23 38.5196 23.1054 38.7071 23.2929C38.8946 23.4804 39 23.7348 39 24C39 24.2652 38.8946 24.5196 38.7071 24.7071C38.5196 24.8946 38.2652 25 38 25Z" fill="#8FA5A5"/>
<path d="M20 30H10C9.73478 30 9.48043 29.8946 9.29289 29.7071C9.10536 29.5196 9 29.2652 9 29C9 28.7348 9.10536 28.4804 9.29289 28.2929C9.48043 28.1054 9.73478 28 10 28H20C20.2652 28 20.5196 28.1054 20.7071 28.2929C20.8946 28.4804 21 28.7348 21 29C21 29.2652 20.8946 29.5196 20.7071 29.7071C20.5196 29.8946 20.2652 30 20 30Z" fill="#8FA5A5"/>
<path d="M38 30H28C27.7348 30 27.4804 29.8946 27.2929 29.7071C27.1054 29.5196 27 29.2652 27 29C27 28.7348 27.1054 28.4804 27.2929 28.2929C27.4804 28.1054 27.7348 28 28 28H38C38.2652 28 38.5196 28.1054 38.7071 28.2929C38.8946 28.4804 39 28.7348 39 29C39 29.2652 38.8946 29.5196 38.7071 29.7071C38.5196 29.8946 38.2652 30 38 30Z" fill="#8FA5A5"/>
<path d="M24 38C23.7348 38 23.4804 37.8946 23.2929 37.7071C23.1054 37.5196 23 37.2652 23 37V8.60001C23 8.33479 23.1054 8.08044 23.2929 7.8929C23.4804 7.70536 23.7348 7.60001 24 7.60001C24.2652 7.60001 24.5196 7.70536 24.7071 7.8929C24.8946 8.08044 25 8.33479 25 8.60001V37C25 37.2652 24.8946 37.5196 24.7071 37.7071C24.5196 37.8946 24.2652 38 24 38Z" fill="#CDD3D3"/>
</svg>
