<?xml version="1.0" encoding="UTF-8" standalone="no"?> <svg width="48" height="48" viewBox="0 0 48 48" fill="none" xmlns="http://www.w3.org/2000/svg">
<g clip-path="url(#clip0_15:28)">
<path d="M17.187 33.267C17.0005 33.2668 16.8178 33.2145 16.6595 33.116C16.5012 33.0174 16.3736 32.8766 16.2911 32.7093C16.2086 32.5421 16.1745 32.3551 16.1927 32.1695C16.2109 31.9839 16.2806 31.8071 16.394 31.659C16.419 31.625 18.969 28.225 20.742 21.197C20.7939 20.991 20.9101 20.8068 21.0737 20.6712C21.2373 20.5356 21.4399 20.4557 21.652 20.443C21.866 20.428 27.072 19.965 30.946 12.372C31.0073 12.2527 31.0921 12.1469 31.1952 12.061C31.2982 11.9751 31.4176 11.9108 31.546 11.872C35.6826 10.368 39.1197 7.39198 41.2 3.51302C41.3245 3.28247 41.5344 3.10997 41.7847 3.03262C42.0351 2.95526 42.3057 2.97924 42.5386 3.09938C42.7714 3.21953 42.9478 3.42625 43.0297 3.67509C43.1117 3.92393 43.0928 4.195 42.977 4.43002C40.7342 8.6702 37.0214 11.9464 32.535 13.644C28.97 20.369 24.308 21.958 22.51 22.329C20.637 29.363 18.087 32.729 17.976 32.877C17.8829 32.9979 17.7635 33.0959 17.6267 33.1635C17.49 33.2311 17.3395 33.2665 17.187 33.267Z" fill="#8FA5A5"/>
<path d="M21.711 22.441C21.4643 22.4415 21.2262 22.3503 21.043 22.185L19.149 20.485C18.9649 20.3045 18.8576 20.0598 18.8495 19.8021C18.8415 19.5443 18.9333 19.2934 19.1059 19.1018C19.2784 18.9102 19.5183 18.7926 19.7755 18.7736C20.0327 18.7546 20.2872 18.8358 20.486 19L22.38 20.7C22.5302 20.8353 22.6359 21.013 22.6831 21.2096C22.7303 21.4063 22.7168 21.6126 22.6443 21.8013C22.5718 21.9901 22.4439 22.1525 22.2773 22.267C22.1106 22.3816 21.9132 22.4429 21.711 22.443V22.441Z" fill="#2D4A60"/>
<path d="M31.838 13.826C31.6828 13.826 31.5296 13.7899 31.3908 13.7204C31.2519 13.651 31.1311 13.5502 31.038 13.426L29.5 11.4C29.4207 11.2949 29.363 11.1753 29.3299 11.0479C29.2969 10.9205 29.2893 10.7879 29.3076 10.6576C29.3258 10.5272 29.3696 10.4018 29.4363 10.2884C29.503 10.1749 29.5914 10.0758 29.6965 9.99651C29.8016 9.91725 29.9212 9.85947 30.0486 9.82645C30.176 9.79344 30.3086 9.78584 30.4389 9.80408C30.5693 9.82233 30.6947 9.86607 30.8082 9.9328C30.9216 9.99953 31.0207 10.0879 31.1 10.193L32.636 12.223C32.7474 12.3716 32.8153 12.5482 32.832 12.7332C32.8486 12.9182 32.8135 13.1041 32.7304 13.2702C32.6474 13.4363 32.5197 13.576 32.3617 13.6737C32.2038 13.7713 32.0217 13.823 31.836 13.823L31.838 13.826Z" fill="#2D4A60"/>
<path d="M42.112 29.394C41.7008 29.395 41.2935 29.3145 40.9137 29.1571C40.5338 28.9997 40.1889 28.7685 39.899 28.477C39.7168 28.2884 39.616 28.0358 39.6183 27.7736C39.6206 27.5114 39.7258 27.2606 39.9112 27.0752C40.0966 26.8898 40.3474 26.7846 40.6096 26.7823C40.8718 26.78 41.1244 26.8808 41.313 27.063C41.5283 27.2691 41.8149 27.3841 42.113 27.3841C42.4111 27.3841 42.6977 27.2691 42.913 27.063C43.0493 26.9264 43.1484 26.7572 43.2009 26.5715C43.2534 26.3858 43.2575 26.1897 43.2127 26.002C43.168 25.8143 43.0761 25.6411 42.9455 25.499C42.815 25.3568 42.6503 25.2505 42.467 25.19C42.0662 25.0517 41.7193 24.7901 41.4761 24.4427C41.2329 24.0954 41.1058 23.68 41.113 23.256L41.093 3.97198C41.093 3.70677 41.1984 3.45241 41.3859 3.26488C41.5734 3.07734 41.8278 2.97198 42.093 2.97198C42.3582 2.97198 42.6126 3.07734 42.8001 3.26488C42.9876 3.45241 43.093 3.70677 43.093 3.97198L43.111 23.256C43.5631 23.4425 43.9752 23.7141 44.325 24.056C44.7626 24.4937 45.0607 25.0514 45.1814 25.6585C45.3021 26.2656 45.2401 26.8948 45.0033 27.4667C44.7664 28.0386 44.3653 28.5274 43.8507 28.8713C43.336 29.2153 42.731 29.3989 42.112 29.399V29.394Z" fill="#8FA5A5"/>
<path d="M8.506 35.648C8.3303 35.6484 8.1576 35.6024 8.00531 35.5148C7.85301 35.4271 7.72649 35.3009 7.63849 35.1489C7.55049 34.9968 7.50411 34.8242 7.50402 34.6485C7.50394 34.4728 7.55015 34.3002 7.638 34.148C15.1088 20.9908 26.4104 10.4217 40.038 3.84801L41.661 3.06201C41.7795 3.00194 41.9088 2.96609 42.0414 2.95656C42.1739 2.94702 42.307 2.964 42.4329 3.00649C42.5588 3.04898 42.6749 3.11614 42.7746 3.20403C42.8742 3.29193 42.9554 3.3988 43.0132 3.51841C43.0711 3.63801 43.1046 3.76795 43.1117 3.90064C43.1188 4.03332 43.0993 4.16609 43.0545 4.29118C43.0097 4.41627 42.9404 4.53118 42.8507 4.62919C42.761 4.7272 42.6527 4.80635 42.532 4.86201L40.909 5.64801C27.6453 12.0474 16.646 22.3358 9.376 35.143C9.28853 35.2965 9.16194 35.4242 9.00912 35.5129C8.8563 35.6016 8.6827 35.6482 8.506 35.648Z" fill="#2D4A60"/>
<path d="M4.43637 34.6301L1.37632 40.0028C0.556327 41.4425 1.0587 43.2744 2.49841 44.0944L3.4473 44.6348C4.88701 45.4548 6.71887 44.9525 7.53887 43.5127L10.5989 38.1401C11.4189 36.7004 10.9165 34.8685 9.47682 34.0485L8.52794 33.5081C7.08823 32.6881 5.25637 33.1904 4.43637 34.6301Z" fill="#E67244"/>
<path d="M9.477 34.049L8.528 33.509C8.36488 33.4171 8.19345 33.3407 8.016 33.281C8.54792 33.7334 8.90537 34.3571 9.02676 35.0448C9.14815 35.7324 9.02587 36.4409 8.681 37.048L5.621 42.421C5.27458 43.0274 4.72745 43.494 4.07393 43.7402C3.42041 43.9865 2.70146 43.997 2.041 43.77C2.18358 43.8938 2.33722 44.0043 2.5 44.1L3.449 44.64C3.79135 44.8351 4.16876 44.9608 4.5597 45.0099C4.95063 45.0591 5.34742 45.0308 5.7274 44.9266C6.10739 44.8224 6.46313 44.6444 6.77431 44.4027C7.08549 44.161 7.34601 43.8604 7.541 43.518L10.601 38.146C10.7967 37.8033 10.923 37.4254 10.9724 37.0338C11.0219 36.6423 10.9936 36.2449 10.8891 35.8643C10.7847 35.4837 10.6063 35.1274 10.3639 34.8159C10.1216 34.5044 9.82021 34.2438 9.477 34.049Z" fill="#C6512B"/>
<path d="M15 34.507C16.933 34.507 18.5 32.94 18.5 31.007C18.5 29.074 16.933 27.507 15 27.507C13.067 27.507 11.5 29.074 11.5 31.007C11.5 32.94 13.067 34.507 15 34.507Z" fill="#FAC100"/>
<path d="M15 32.507C15.8284 32.507 16.5 31.8354 16.5 31.007C16.5 30.1786 15.8284 29.507 15 29.507C14.1716 29.507 13.5 30.1786 13.5 31.007C13.5 31.8354 14.1716 32.507 15 32.507Z" fill="#FF9500"/>
<path d="M44.567 44.34C44.3749 44.3396 44.1838 44.3109 44 44.255L42.117 43.69L40.235 44.255C39.8896 44.3582 39.5226 44.3652 39.1735 44.2753C38.8244 44.1854 38.5065 44.0021 38.2538 43.7449C38.0012 43.4878 37.8235 43.1666 37.7398 42.816C37.6562 42.4653 37.6697 42.0985 37.779 41.755C38.0337 40.9955 38.5093 40.3294 39.145 39.842C37.9308 38.5592 37.2415 36.868 37.213 35.102C37.2532 33.8585 37.5985 32.644 38.2187 31.5654C38.8388 30.4869 39.7146 29.5774 40.769 28.917C41.1645 28.6395 41.6359 28.4905 42.119 28.4905C42.6021 28.4905 43.0735 28.6395 43.469 28.917C44.5218 29.578 45.3959 30.4876 46.0146 31.5657C46.6333 32.6439 46.9775 33.8576 47.017 35.1C46.9881 36.8659 46.2988 38.557 45.085 39.84C45.7204 40.3275 46.1957 40.9936 46.45 41.753C46.546 42.0492 46.57 42.364 46.5199 42.6714C46.4698 42.9787 46.3471 43.2696 46.162 43.52C45.979 43.7722 45.7393 43.9777 45.4623 44.1202C45.1852 44.2626 44.8785 44.3379 44.567 44.34V44.34Z" fill="#FAC100"/>
<path d="M45.085 39.845C45.5696 39.3082 45.9784 38.7077 46.3 38.06C44.6532 38.6415 42.8578 38.6469 41.2076 38.0752C39.5574 37.5035 38.1501 36.3886 37.216 34.913C37.216 34.977 37.204 35.04 37.204 35.105C37.2325 36.871 37.9218 38.5622 39.136 39.845C38.5003 40.3324 38.0247 40.9985 37.77 41.758C37.6742 42.0543 37.6504 42.3692 37.7007 42.6765C37.751 42.9838 37.8738 43.2747 38.059 43.525C38.2992 43.8572 38.6371 44.1061 39.0256 44.237C39.4141 44.3679 39.8338 44.3742 40.226 44.255L42.108 43.69L44 44.255C44.1854 44.3114 44.3782 44.3401 44.572 44.34C44.8831 44.3385 45.1895 44.264 45.4665 44.1224C45.7436 43.9809 45.9835 43.7762 46.167 43.525C46.3521 43.2746 46.4748 42.9837 46.5249 42.6764C46.575 42.369 46.551 42.0542 46.455 41.758C46.1994 40.998 45.7222 40.3318 45.085 39.845V39.845Z" fill="#FF9500"/>
</g>
<defs>
<clipPath id="clip0_15:28">
<rect width="48" height="48" fill="white"/>
</clipPath>
</defs>
</svg>
