<?xml version="1.0" encoding="UTF-8" standalone="no"?> <svg width="48" height="48" viewBox="0 0 48 48" fill="none" xmlns="http://www.w3.org/2000/svg">
<path d="M11 44.5C10.3012 44.5 9.61019 44.3535 8.97149 44.07C8.3328 43.7866 7.76062 43.3723 7.29186 42.8541C6.8231 42.3359 6.46817 41.7252 6.24996 41.0613C6.03176 40.3975 5.95512 39.6953 6.025 39L8.325 16C8.44568 14.7654 9.02235 13.6201 9.94233 12.788C10.8623 11.9558 12.0595 11.4966 13.3 11.5H34.7C35.9405 11.4966 37.1377 11.9558 38.0577 12.788C38.9776 13.6201 39.5543 14.7654 39.675 16L41.975 39C42.0449 39.6953 41.9682 40.3975 41.75 41.0613C41.5318 41.7252 41.1769 42.3359 40.7081 42.8541C40.2394 43.3723 39.6672 43.7866 39.0285 44.07C38.3898 44.3535 37.6988 44.5 37 44.5H11Z" fill="#FD3730"/>
<path d="M10.025 39L12.325 16C12.4457 14.7654 13.0224 13.6201 13.9423 12.788C14.8623 11.9558 16.0595 11.4966 17.3 11.5H13.3C12.0595 11.4966 10.8623 11.9558 9.94233 12.788C9.02235 13.6201 8.44568 14.7654 8.325 16L6.025 39C5.95512 39.6953 6.03176 40.3975 6.24996 41.0613C6.46817 41.7252 6.8231 42.3359 7.29186 42.8541C7.76062 43.3723 8.3328 43.7866 8.97149 44.07C9.61019 44.3535 10.3012 44.5 11 44.5H15C14.3012 44.5 13.6102 44.3535 12.9715 44.07C12.3328 43.7866 11.7606 43.3723 11.2919 42.8541C10.8231 42.3359 10.4682 41.7252 10.25 41.0613C10.0318 40.3975 9.95512 39.6953 10.025 39V39Z" fill="#C92424"/>
<path d="M32 19.5C31.7348 19.5 31.4804 19.3946 31.2929 19.2071C31.1054 19.0196 31 18.7652 31 18.5V10.5C31 8.64348 30.2625 6.86301 28.9497 5.55025C27.637 4.2375 25.8565 3.5 24 3.5C22.1435 3.5 20.363 4.2375 19.0503 5.55025C17.7375 6.86301 17 8.64348 17 10.5V18.5C17 18.7652 16.8946 19.0196 16.7071 19.2071C16.5196 19.3946 16.2652 19.5 16 19.5C15.7348 19.5 15.4804 19.3946 15.2929 19.2071C15.1054 19.0196 15 18.7652 15 18.5V10.5C15 8.11305 15.9482 5.82387 17.636 4.13604C19.3239 2.44821 21.6131 1.5 24 1.5C26.3869 1.5 28.6761 2.44821 30.364 4.13604C32.0518 5.82387 33 8.11305 33 10.5V18.5C33 18.7652 32.8946 19.0196 32.7071 19.2071C32.5196 19.3946 32.2652 19.5 32 19.5Z" fill="#2D4A60"/>
<path d="M16 20.5C17.1046 20.5 18 19.6046 18 18.5C18 17.3954 17.1046 16.5 16 16.5C14.8954 16.5 14 17.3954 14 18.5C14 19.6046 14.8954 20.5 16 20.5Z" fill="#EAEFF0"/>
<path d="M32 20.5C33.1046 20.5 34 19.6046 34 18.5C34 17.3954 33.1046 16.5 32 16.5C30.8954 16.5 30 17.3954 30 18.5C30 19.6046 30.8954 20.5 32 20.5Z" fill="#EAEFF0"/>
<path d="M23.61 35.993L20.586 37.274C20.4272 37.3412 20.2538 37.3662 20.0825 37.3466C19.9113 37.327 19.748 37.2634 19.6085 37.1621C19.469 37.0607 19.3581 36.9251 19.2866 36.7683C19.215 36.6114 19.1852 36.4388 19.2 36.267L19.484 32.995C19.4956 32.8615 19.4802 32.727 19.4388 32.5995C19.3974 32.4721 19.3308 32.3542 19.243 32.253L17.09 29.773C16.9769 29.6427 16.8994 29.4854 16.8651 29.3163C16.8307 29.1473 16.8407 28.9722 16.8941 28.8081C16.9474 28.6441 17.0423 28.4966 17.1695 28.38C17.2967 28.2635 17.4519 28.1818 17.62 28.143L20.82 27.402C20.9508 27.3718 21.0741 27.3156 21.1827 27.2368C21.2912 27.1579 21.3828 27.058 21.452 26.943L23.145 24.129C23.2339 23.9811 23.3595 23.8588 23.5097 23.7739C23.6599 23.689 23.8295 23.6443 24.002 23.6443C24.1745 23.6443 24.3441 23.689 24.4943 23.7739C24.6445 23.8588 24.7701 23.9811 24.859 24.129L26.552 26.943C26.6212 27.058 26.7128 27.1579 26.8213 27.2368C26.9299 27.3156 27.0532 27.3718 27.184 27.402L30.384 28.143C30.5521 28.1818 30.7073 28.2635 30.8345 28.38C30.9617 28.4966 31.0566 28.6441 31.1099 28.8081C31.1633 28.9722 31.1733 29.1473 31.1389 29.3163C31.1046 29.4854 31.0271 29.6427 30.914 29.773L28.761 32.253C28.6732 32.3542 28.6066 32.4721 28.5652 32.5995C28.5238 32.727 28.5084 32.8615 28.52 32.995L28.804 36.267C28.8189 36.4389 28.7891 36.6117 28.7175 36.7686C28.6459 36.9256 28.5349 37.0614 28.3953 37.1627C28.2557 37.2641 28.0922 37.3276 27.9208 37.3471C27.7494 37.3666 27.5758 37.3414 27.417 37.274L24.39 35.993C24.2666 35.9407 24.134 35.9138 24 35.9138C23.866 35.9138 23.7334 35.9407 23.61 35.993V35.993Z" fill="#EAEFF0"/>
</svg>
