<?xml version="1.0" encoding="UTF-8" standalone="no"?> <svg width="48" height="48" viewBox="0 0 48 48" fill="none" xmlns="http://www.w3.org/2000/svg">
<path d="M26 25C26 23.8954 25.1046 23 24 23C22.8954 23 22 23.8954 22 25V31C22 32.1046 22.8954 33 24 33C25.1046 33 26 32.1046 26 31V25Z" fill="#EAEFF0"/>
<path d="M41.88 18.94L19.85 24.49L18 24L16 18L16.902 16.616L37.452 7.12299L40 7.99999L43 16L41.88 18.94Z" fill="#EAEFF0"/>
<path d="M15.43 24.94L8.334 27.449L6 27L5 24L6.12 21.542L13.216 19.034L15 19L17 23L15.43 24.94Z" fill="#EAEFF0"/>
<path d="M19.127 22.131L17.277 21.641L18 24L19.85 24.49L41.88 18.94L43 16L42.335 14.227L19.127 22.131Z" fill="#CDD3D3"/>
<path d="M15.995 20.99L14.707 22.581L7.611 25.09L5.277 24.641L5.036 23.92L5 24L6 27L8.334 27.449L15.43 24.94L17 23L15.995 20.99Z" fill="#CDD3D3"/>
<path d="M33.49 44C33.2161 43.9991 32.9452 43.9429 32.6936 43.8346C32.442 43.7263 32.2149 43.5683 32.026 43.37L26.5 37.341V42.5C26.5 42.8978 26.342 43.2794 26.0607 43.5607C25.7794 43.842 25.3978 44 25 44H23C22.6022 44 22.2206 43.842 21.9393 43.5607C21.658 43.2794 21.5 42.8978 21.5 42.5V37.341L15.987 43.356C15.7974 43.558 15.5687 43.7192 15.3147 43.8299C15.0608 43.9406 14.787 43.9985 14.51 44H12.02C11.7271 44.0009 11.4404 43.9161 11.1952 43.7561C10.95 43.596 10.7569 43.3676 10.64 43.0991C10.523 42.8306 10.4872 42.5337 10.537 42.2451C10.5867 41.9565 10.7199 41.6888 10.92 41.475L19.028 32.632L19 32.05C18.9932 31.9145 19.0141 31.7791 19.0613 31.6519C19.1085 31.5248 19.1811 31.4086 19.2746 31.3103C19.3682 31.2121 19.4807 31.134 19.6054 31.0806C19.7301 31.0273 19.8644 30.9998 20 31H28C28.1356 30.9998 28.2699 31.0273 28.3946 31.0806C28.5193 31.134 28.6318 31.2121 28.7254 31.3103C28.8189 31.4086 28.8915 31.5248 28.9387 31.6519C28.9859 31.7791 29.0068 31.9145 29 32.05L28.971 32.632L37.088 41.484C37.2856 41.6987 37.4164 41.9663 37.4642 42.2541C37.512 42.542 37.4749 42.8375 37.3573 43.1046C37.2397 43.3716 37.0467 43.5985 36.8021 43.7576C36.5575 43.9166 36.2718 44.0009 35.98 44H33.49Z" fill="#EAEFF0"/>
<path d="M26.5 37.341V42.5C26.5 42.8978 26.342 43.2794 26.0607 43.5607C25.7794 43.842 25.3978 44 25 44H23C22.6022 44 22.2206 43.842 21.9393 43.5607C21.658 43.2794 21.5 42.8978 21.5 42.5V37.341L24 34.614L26.5 37.341Z" fill="#CDD3D3"/>
<path d="M5.29301 30.571C4.87056 30.5718 4.45787 30.4441 4.10962 30.205C3.76137 29.9659 3.49402 29.6265 3.34301 29.232L1.12901 23.326C1.03362 23.075 0.989777 22.8073 1.00009 22.5389C1.01039 22.2705 1.07465 22.007 1.18901 21.764C1.30475 21.5146 1.46949 21.2909 1.6734 21.1064C1.87732 20.9219 2.11626 20.7803 2.37601 20.69L4.40001 19.973C4.91384 19.7924 5.47776 19.8184 5.97275 20.0456C6.46775 20.2729 6.85508 20.6836 7.05301 21.191L9.27101 27.1C9.36551 27.3509 9.4088 27.6183 9.39832 27.8862C9.38785 28.1541 9.32381 28.4172 9.21001 28.66C9.0944 28.9096 8.92972 29.1333 8.72579 29.3178C8.52185 29.5023 8.28284 29.6439 8.02301 29.734L6.00001 30.451C5.77296 30.5313 5.53381 30.5718 5.29301 30.571V30.571Z" fill="#2D4A60"/>
<path d="M9.271 27.1L8.378 24.718C8.3548 24.966 8.29024 25.2083 8.187 25.435C8.05747 25.7137 7.87326 25.9635 7.6453 26.1697C7.41735 26.3758 7.15029 26.5341 6.86 26.635L4.59 27.435C4.26163 27.5527 3.91068 27.5937 3.56402 27.5549C3.21736 27.5161 2.88418 27.3984 2.59 27.211L3.347 29.231C3.54329 29.7398 3.93031 30.1519 4.42576 30.3797C4.92121 30.6075 5.48599 30.6331 6 30.451L8.028 29.734C8.28691 29.6433 8.52495 29.5014 8.728 29.317C8.93105 29.1325 9.09496 28.909 9.21 28.66C9.3238 28.4172 9.38784 28.1541 9.39831 27.8862C9.40879 27.6182 9.3655 27.3509 9.271 27.1V27.1Z" fill="#263F52"/>
<path d="M16.813 27.615C16.3905 27.6154 15.9778 27.4876 15.6295 27.2486C15.2812 27.0095 15.0136 26.6704 14.862 26.276L11.911 18.4C11.8156 18.1487 11.7719 17.8808 11.7824 17.6123C11.7928 17.3437 11.8573 17.0801 11.972 16.837C12.0879 16.5878 12.2527 16.3644 12.4566 16.18C12.6605 15.9957 12.8994 15.8542 13.159 15.764L15.187 15.047C15.7006 14.8653 16.2649 14.8909 16.76 15.1183C17.2551 15.3457 17.6421 15.757 17.839 16.265L20.79 24.141C20.8854 24.3923 20.9291 24.6602 20.9186 24.9287C20.9082 25.1973 20.8437 25.4609 20.729 25.704C20.6131 25.9532 20.4483 26.1766 20.2444 26.361C20.0405 26.5453 19.8016 26.6868 19.542 26.777L17.515 27.494C17.2896 27.574 17.0522 27.6149 16.813 27.615Z" fill="#2D4A60"/>
<path d="M20.79 24.141L19.89 21.735C19.8622 21.9694 19.7992 22.1984 19.703 22.414C19.5691 22.7009 19.379 22.9581 19.144 23.1704C18.9091 23.3827 18.634 23.5458 18.335 23.65L16 24.476C15.701 24.5822 15.3838 24.628 15.067 24.6109C14.7501 24.5937 14.4398 24.5139 14.154 24.376L14.865 26.276C15.0613 26.7847 15.4484 27.1967 15.9439 27.4242C16.4395 27.6517 17.0043 27.6768 17.518 27.494L19.545 26.777C19.8044 26.6859 20.0429 26.5437 20.2463 26.3587C20.4497 26.1737 20.6139 25.9497 20.729 25.7C20.8431 25.4575 20.9073 25.1945 20.9178 24.9267C20.9283 24.6589 20.8848 24.3917 20.79 24.141Z" fill="#263F52"/>
<path d="M42.894 20.625C42.4717 20.6257 42.0592 20.4983 41.7108 20.2596C41.3625 20.0208 41.0948 19.6821 40.943 19.288L36.516 7.474C36.4205 7.22281 36.3766 6.95494 36.3869 6.6864C36.3972 6.41785 36.4615 6.15414 36.576 5.911C36.6921 5.66161 36.8571 5.43806 37.0611 5.25358C37.2652 5.0691 37.5042 4.92744 37.764 4.837L39.791 4.121C40.0158 4.04134 40.2525 4.00043 40.491 4C40.9135 3.99911 41.3262 4.12671 41.6745 4.36585C42.0228 4.605 42.2901 4.9444 42.441 5.339L46.869 17.152C46.9642 17.4033 47.0079 17.6711 46.9976 17.9396C46.9873 18.2081 46.9232 18.4718 46.809 18.715C46.6928 18.9643 46.5278 19.1878 46.3237 19.3722C46.1197 19.5567 45.8807 19.6984 45.621 19.789L43.594 20.505C43.3692 20.5843 43.1325 20.6249 42.894 20.625V20.625Z" fill="#2D4A60"/>
<path d="M46.871 17.152L45.962 14.726C45.9016 15.161 45.7209 15.5704 45.4404 15.9082C45.1598 16.246 44.7905 16.4988 44.374 16.638L41.981 17.483C41.4206 17.6835 40.8061 17.6714 40.254 17.449L40.943 19.288C41.1411 19.7962 41.5292 20.2074 42.0251 20.4345C42.521 20.6617 43.0858 20.6869 43.6 20.505L45.627 19.789C45.8867 19.6984 46.1257 19.5567 46.3297 19.3722C46.5337 19.1878 46.6988 18.9643 46.815 18.715C46.9285 18.4715 46.992 18.2077 47.0016 17.9392C47.0112 17.6707 46.9668 17.403 46.871 17.152V17.152Z" fill="#263F52"/>
<path d="M30 30H18C16.8954 30 16 30.8954 16 32V33C16 34.1046 16.8954 35 18 35H30C31.1046 35 32 34.1046 32 33V32C32 30.8954 31.1046 30 30 30Z" fill="#2D4A60"/>
<path d="M30 33H18C17.5579 32.9983 17.1288 32.8502 16.7798 32.5788C16.4308 32.3075 16.1815 31.9281 16.071 31.5C16.0259 31.6629 16.0021 31.831 16 32V33C16 33.5304 16.2107 34.0391 16.5858 34.4142C16.9609 34.7893 17.4696 35 18 35H30C30.5304 35 31.0391 34.7893 31.4142 34.4142C31.7893 34.0391 32 33.5304 32 33V32C31.9979 31.831 31.9741 31.6629 31.929 31.5C31.8185 31.9281 31.5692 32.3075 31.2202 32.5788C30.8712 32.8502 30.4421 32.9983 30 33Z" fill="#263F52"/>
<path d="M24 27C26.2091 27 28 25.2091 28 23C28 20.7909 26.2091 19 24 19C21.7909 19 20 20.7909 20 23C20 25.2091 21.7909 27 24 27Z" fill="#8FA5A5"/>
<path d="M24 25C25.1046 25 26 24.1046 26 23C26 21.8954 25.1046 21 24 21C22.8954 21 22 21.8954 22 23C22 24.1046 22.8954 25 24 25Z" fill="#7B8E8D"/>
</svg>
