<?xml version="1.0" encoding="UTF-8" standalone="no"?> <svg width="48" height="48" viewBox="0 0 48 48" fill="none" xmlns="http://www.w3.org/2000/svg">
<path d="M41 7H7C4.23858 7 2 9.23858 2 12V37C2 39.7614 4.23858 42 7 42H41C43.7614 42 46 39.7614 46 37V12C46 9.23858 43.7614 7 41 7Z" fill="#EAEFF0"/>
<path d="M41 38H37.5V17H35.5V38H25V17H23V38H12.5V17H10.5V38H7C5.6744 37.9984 4.40356 37.4711 3.46622 36.5338C2.52888 35.5964 2.00159 34.3256 2 33V37C2.00159 38.3256 2.52888 39.5964 3.46622 40.5338C4.40356 41.4711 5.6744 41.9984 7 42H41C42.3256 41.9984 43.5964 41.4711 44.5338 40.5338C45.4711 39.5964 45.9984 38.3256 46 37V33C45.9984 34.3256 45.4711 35.5964 44.5338 36.5338C43.5964 37.4711 42.3256 37.9984 41 38Z" fill="#CDD3D3"/>
<path d="M25.5 6H22.5C21.3954 6 20.5 6.89543 20.5 8V22C20.5 23.1046 21.3954 24 22.5 24H25.5C26.6046 24 27.5 23.1046 27.5 22V8C27.5 6.89543 26.6046 6 25.5 6Z" fill="#2D4A60"/>
<path d="M38 6H35C33.8954 6 33 6.89543 33 8V22C33 23.1046 33.8954 24 35 24H38C39.1046 24 40 23.1046 40 22V8C40 6.89543 39.1046 6 38 6Z" fill="#2D4A60"/>
<path d="M13 6H10C8.89543 6 8 6.89543 8 8V22C8 23.1046 8.89543 24 10 24H13C14.1046 24 15 23.1046 15 22V8C15 6.89543 14.1046 6 13 6Z" fill="#2D4A60"/>
<path d="M25.5 22H22.5C21.9696 22 21.4609 21.7893 21.0858 21.4142C20.7107 21.0391 20.5 20.5304 20.5 20V22C20.5 22.5304 20.7107 23.0391 21.0858 23.4142C21.4609 23.7893 21.9696 24 22.5 24H25.5C26.0304 24 26.5391 23.7893 26.9142 23.4142C27.2893 23.0391 27.5 22.5304 27.5 22V20C27.5 20.5304 27.2893 21.0391 26.9142 21.4142C26.5391 21.7893 26.0304 22 25.5 22Z" fill="#263F52"/>
<path d="M38 22H35C34.4696 22 33.9609 21.7893 33.5858 21.4142C33.2107 21.0391 33 20.5304 33 20V22C33 22.5304 33.2107 23.0391 33.5858 23.4142C33.9609 23.7893 34.4696 24 35 24H38C38.5304 24 39.0391 23.7893 39.4142 23.4142C39.7893 23.0391 40 22.5304 40 22V20C40 20.5304 39.7893 21.0391 39.4142 21.4142C39.0391 21.7893 38.5304 22 38 22Z" fill="#263F52"/>
<path d="M13 22H10C9.46957 22 8.96086 21.7893 8.58579 21.4142C8.21071 21.0391 8 20.5304 8 20V22C8 22.5304 8.21071 23.0391 8.58579 23.4142C8.96086 23.7893 9.46957 24 10 24H13C13.5304 24 14.0391 23.7893 14.4142 23.4142C14.7893 23.0391 15 22.5304 15 22V20C15 20.5304 14.7893 21.0391 14.4142 21.4142C14.0391 21.7893 13.5304 22 13 22Z" fill="#263F52"/>
</svg>
