<?xml version="1.0" encoding="UTF-8" standalone="no"?> <svg width="48" height="48" viewBox="0 0 48 48" fill="none" xmlns="http://www.w3.org/2000/svg">
<path d="M13.462 43C12.267 43.0068 11.11 42.5805 10.205 41.8C8.08043 39.955 6.34992 37.7003 5.11701 35.1709C3.8841 32.6415 3.17415 29.8894 3.02962 27.0792C2.8851 24.269 3.30898 21.4586 4.27591 18.8161C5.24283 16.1735 6.73292 13.7532 8.657 11.7C8.81342 11.5366 8.90985 11.3251 8.93056 11.0999C8.95126 10.8747 8.89502 10.6491 8.771 10.46L8.315 9.77499C8.06416 9.41892 7.89017 9.01455 7.80409 8.58759C7.71801 8.16063 7.72173 7.72043 7.815 7.29499C7.9734 6.6398 8.34784 6.05705 8.87795 5.64069C9.40806 5.22434 10.0629 4.99864 10.737 4.99999H37.581C38.1326 4.98767 38.6777 5.12095 39.1613 5.3864C39.645 5.65184 40.0502 6.04008 40.336 6.51199C40.6422 7.04205 40.7777 7.65356 40.724 8.26335C40.6703 8.87313 40.4301 9.45158 40.036 9.91999L39.485 10.581C39.3312 10.7686 39.2509 11.0058 39.259 11.2483C39.2671 11.4908 39.363 11.722 39.529 11.899C41.411 13.96 42.8616 16.3768 43.7953 19.0069C44.729 21.6371 45.1271 24.4275 44.966 27.2139C44.8048 30.0002 44.0878 32.7262 42.8571 35.2312C41.6265 37.7362 39.907 39.9696 37.8 41.8C36.8937 42.5816 35.7347 43.008 34.538 43H13.462Z" fill="#EAEFF0"/>
<path d="M9 26C8.99672 20.687 11.0199 15.5728 14.657 11.7C14.8134 11.5367 14.9099 11.3251 14.9306 11.0999C14.9513 10.8747 14.895 10.6491 14.771 10.46L14.315 9.77501C14.0642 9.41894 13.8902 9.01457 13.8041 8.58761C13.718 8.16065 13.7217 7.72045 13.815 7.29501C13.9734 6.63982 14.3478 6.05707 14.878 5.64071C15.4081 5.22435 16.0629 4.99866 16.737 5.00001H10.737C10.0629 4.99982 9.40847 5.22665 8.87909 5.64391C8.34971 6.06117 7.97628 6.64456 7.819 7.30001C7.72573 7.72545 7.72201 8.16565 7.80809 8.59261C7.89417 9.01957 8.06817 9.42394 8.319 9.78001L8.775 10.465C8.89902 10.6541 8.95526 10.8797 8.93456 11.1049C8.91385 11.3301 8.81742 11.5417 8.661 11.705C6.73692 13.7583 5.24683 16.1786 4.27991 18.8211C3.31298 21.4636 2.8891 24.2741 3.03362 27.0842C3.17815 29.8944 3.8881 32.6465 5.12101 35.1759C6.35392 37.7053 8.08444 39.96 10.209 41.805C11.1136 42.5828 12.269 43.0072 13.462 43H19.462C18.2653 43.008 17.1063 42.5816 16.2 41.8C13.9422 39.8325 12.1315 37.4046 10.8897 34.6794C9.64782 31.9542 9.0035 28.9948 9 26V26Z" fill="#CDD3D3"/>
<path d="M13.478 41C12.7092 40.9937 11.9694 40.7055 11.399 40.19C9.39023 38.4112 7.78131 36.2269 6.67832 33.781C5.57533 31.3351 5.00332 28.6831 5 26C4.99725 22.9545 5.73876 19.9545 7.16 17.261C7.38788 16.8378 7.76098 16.5111 8.21061 16.3411C8.66024 16.1712 9.15613 16.1693 9.607 16.336C11.8809 17.1503 14.2777 17.5684 16.693 17.572C19.3665 17.6005 22.0124 17.0291 24.436 15.9C26.5879 14.9 28.9374 14.3976 31.31 14.43C34.3986 14.4151 37.4411 15.1793 40.156 16.652C40.4971 16.8434 40.7734 17.132 40.95 17.481C42.8478 21.2122 43.4505 25.4688 42.6629 29.5802C41.8753 33.6917 39.7424 37.4242 36.6 40.19C36.0296 40.7055 35.2898 40.9937 34.521 41H13.478Z" fill="#009AE0"/>
<path d="M11.139 16.813C10.62 16.671 10.107 16.513 9.607 16.336C9.15613 16.1693 8.66024 16.1712 8.21061 16.3411C7.76098 16.5111 7.38788 16.8378 7.16 17.261C5.73876 19.9545 4.99725 22.9545 5 26C5.00344 28.6832 5.57561 31.3352 6.67878 33.7811C7.78194 36.227 9.39105 38.4113 11.4 40.19C11.9703 40.7056 12.7102 40.9939 13.479 41H15.337C12.1722 37.9286 10.0613 33.934 9.30675 29.589C8.55224 25.2439 9.19294 20.7715 11.137 16.813H11.139Z" fill="#0081BD"/>
<path d="M23.778 26.5C21.2939 26.4998 18.8971 27.4164 17.047 29.074C16.8361 29.265 16.5672 29.3799 16.2833 29.4002C15.9995 29.4205 15.717 29.3451 15.481 29.186C14.6357 28.5955 13.7254 28.1039 12.768 27.721L11.776 27.321C11.6171 27.2576 11.4427 27.2439 11.2759 27.2818C11.1091 27.3198 10.9577 27.4075 10.8419 27.5334C10.7261 27.6593 10.6512 27.8175 10.6273 27.9869C10.6034 28.1563 10.6315 28.329 10.708 28.482L11.132 29.33C11.6656 30.3974 11.7533 31.6329 11.376 32.765V32.771C11.3265 32.9197 11.3194 33.0792 11.3555 33.2318C11.3916 33.3843 11.4695 33.5237 11.5803 33.6345C11.6912 33.7452 11.8307 33.8229 11.9833 33.8589C12.1358 33.8948 12.2953 33.8876 12.444 33.838L13.074 33.628C13.8332 33.375 14.5552 33.0219 15.221 32.578V32.578C15.4558 32.4181 15.7378 32.3424 16.0211 32.3633C16.3044 32.3842 16.5722 32.5004 16.781 32.693C17.7953 33.6605 18.999 34.4073 20.3163 34.8863C21.6336 35.3653 23.0359 35.5662 24.4347 35.4763C25.8335 35.3864 27.1985 35.0076 28.4436 34.3639C29.6887 33.7201 30.7869 32.8254 31.669 31.736C31.8401 31.5277 31.9337 31.2665 31.9337 30.997C31.9337 30.7275 31.8401 30.4663 31.669 30.258C30.7165 29.0836 29.5137 28.1367 28.1485 27.4865C26.7833 26.8364 25.2901 26.4993 23.778 26.5V26.5Z" fill="#FAC100"/>
<path d="M25.5 35C23.6419 34.9999 21.8247 34.455 20.2732 33.4326C18.7217 32.4102 17.5041 30.9553 16.771 29.248C16.5708 29.3564 16.3447 29.4079 16.1173 29.397C15.8899 29.3861 15.6699 29.3131 15.481 29.186C14.6357 28.5955 13.7254 28.1039 12.768 27.721L11.776 27.321C11.6171 27.2576 11.4427 27.2439 11.2759 27.2818C11.1091 27.3198 10.9577 27.4075 10.8419 27.5334C10.7261 27.6593 10.6512 27.8175 10.6273 27.9869C10.6034 28.1563 10.6315 28.329 10.708 28.482L11.132 29.33C11.6656 30.3974 11.7533 31.6329 11.376 32.765V32.771C11.3265 32.9197 11.3194 33.0793 11.3555 33.2318C11.3916 33.3843 11.4695 33.5237 11.5803 33.6345C11.6912 33.7452 11.8307 33.8229 11.9833 33.8589C12.1358 33.8948 12.2953 33.8876 12.444 33.838L13.074 33.628C13.8332 33.375 14.5552 33.0219 15.221 32.578C15.4558 32.4181 15.7378 32.3424 16.0211 32.3633C16.3044 32.3842 16.5722 32.5004 16.781 32.693C18.1748 34.0294 19.9229 34.9377 21.8176 35.31C23.7124 35.6822 25.6742 35.5028 27.47 34.793C26.8223 34.9303 26.1621 34.9997 25.5 35Z" fill="#FF9500"/>
<path d="M36.5 28C37.3284 28 38 27.3284 38 26.5C38 25.6716 37.3284 25 36.5 25C35.6716 25 35 25.6716 35 26.5C35 27.3284 35.6716 28 36.5 28Z" fill="#EAEFF0"/>
<path d="M31 23C32.1046 23 33 22.1046 33 21C33 19.8954 32.1046 19 31 19C29.8954 19 29 19.8954 29 21C29 22.1046 29.8954 23 31 23Z" fill="#EAEFF0"/>
</svg>
