<?xml version="1.0" encoding="UTF-8" standalone="no"?> <svg width="48" height="48" viewBox="0 0 48 48" fill="none" xmlns="http://www.w3.org/2000/svg">
<path d="M28 33H20V41H28V33Z" fill="#8FA5A5"/>
<path d="M39 38H9C7.89543 38 7 38.8954 7 40C7 41.1046 7.89543 42 9 42H39C40.1046 42 41 41.1046 41 40C41 38.8954 40.1046 38 39 38Z" fill="#2D4A60"/>
<path d="M9 42H39C39.5304 42 40.0391 41.7893 40.4142 41.4142C40.7893 41.0391 41 40.5304 41 40H7C7 40.5304 7.21071 41.0391 7.58579 41.4142C7.96086 41.7893 8.46957 42 9 42Z" fill="#263F52"/>
<path d="M41 6H7C4.23858 6 2 8.23858 2 11V31C2 33.7614 4.23858 36 7 36H41C43.7614 36 46 33.7614 46 31V11C46 8.23858 43.7614 6 41 6Z" fill="#2D4A60"/>
<path d="M41 8H7C5.34315 8 4 9.34315 4 11V31C4 32.6569 5.34315 34 7 34H41C42.6569 34 44 32.6569 44 31V11C44 9.34315 42.6569 8 41 8Z" fill="#EAEFF0"/>
<path d="M5.525 8.39999C5.06318 8.65932 4.67859 9.03675 4.41063 9.49361C4.14266 9.95047 4.00095 10.4703 4 11V31C4 31.7956 4.31607 32.5587 4.87868 33.1213C5.44129 33.6839 6.20435 34 7 34H41C41.5182 33.998 42.0268 33.8601 42.475 33.6L5.525 8.39999Z" fill="#CDD3D3"/>
<path d="M24 11.5C22.1211 11.5 20.2844 12.0572 18.7221 13.101C17.1598 14.1449 15.9422 15.6286 15.2231 17.3645C14.5041 19.1004 14.316 21.0105 14.6825 22.8534C15.0491 24.6962 15.9539 26.3889 17.2825 27.7175C18.6111 29.0461 20.3038 29.9509 22.1466 30.3175C23.9895 30.684 25.8996 30.4959 27.6355 29.7769C29.3714 29.0578 30.8551 27.8402 31.899 26.2779C32.9428 24.7157 33.5 22.8789 33.5 21C33.5 18.4804 32.4991 16.0641 30.7175 14.2825C28.9359 12.5009 26.5196 11.5 24 11.5V11.5ZM27.476 21.866L22.524 24.725C22.372 24.8128 22.1995 24.859 22.024 24.859C21.8485 24.859 21.676 24.8128 21.524 24.725C21.372 24.6372 21.2458 24.511 21.158 24.359C21.0702 24.207 21.024 24.0345 21.024 23.859V18.141C21.024 17.9655 21.0702 17.793 21.158 17.641C21.2458 17.489 21.372 17.3628 21.524 17.275C21.676 17.1872 21.8485 17.141 22.024 17.141C22.1995 17.141 22.372 17.1872 22.524 17.275L27.476 20.134C27.628 20.2218 27.7542 20.348 27.842 20.5C27.9298 20.652 27.976 20.8245 27.976 21C27.976 21.1755 27.9298 21.348 27.842 21.5C27.7542 21.652 27.628 21.7782 27.476 21.866V21.866Z" fill="#FD3730"/>
<path d="M26.282 22.556L22.524 24.725C22.372 24.8128 22.1995 24.859 22.024 24.859C21.8485 24.859 21.676 24.8128 21.524 24.725C21.372 24.6372 21.2458 24.511 21.158 24.359C21.0702 24.207 21.024 24.0345 21.024 23.859V18.971L16.152 15.649C15.4384 16.6795 14.9357 17.8411 14.6731 19.0668C14.4104 20.2925 14.3929 21.558 14.6216 22.7905C14.8503 24.023 15.3206 25.198 16.0055 26.2479C16.6903 27.2977 17.5762 28.2017 18.612 28.9076C19.6479 29.6136 20.8131 30.1075 22.0407 30.3611C23.2683 30.6146 24.534 30.6227 25.7647 30.3848C26.9955 30.147 28.167 29.6679 29.2117 28.9753C30.2565 28.2826 31.1538 27.39 31.852 26.349L26.282 22.556Z" fill="#C92424"/>
</svg>
