<?xml version="1.0" encoding="UTF-8" standalone="no"?> <svg width="48" height="48" viewBox="0 0 48 48" fill="none" xmlns="http://www.w3.org/2000/svg">
<path d="M30.319 8.00001C30.0935 7.99986 29.8747 7.92352 29.6981 7.78338C29.5215 7.64325 29.3974 7.44753 29.346 7.22801C29.0608 6.02446 28.3779 4.95235 27.4077 4.18517C26.4375 3.41799 25.2369 3.00062 24 3.00062C22.7631 3.00062 21.5625 3.41799 20.5923 4.18517C19.6221 4.95235 18.9392 6.02446 18.654 7.22801C18.626 7.35784 18.5724 7.48079 18.4964 7.58969C18.4204 7.69859 18.3234 7.79125 18.2112 7.86227C18.099 7.93329 17.9737 7.98124 17.8428 8.00333C17.7118 8.02541 17.5777 8.02119 17.4484 7.99091C17.3191 7.96062 17.1971 7.90488 17.0896 7.82693C16.9821 7.74899 16.8911 7.65041 16.8221 7.53694C16.7531 7.42347 16.7074 7.29739 16.6876 7.16605C16.6678 7.03472 16.6744 6.90076 16.707 6.77201C17.0945 5.12879 18.0255 3.66458 19.3492 2.61669C20.6729 1.56881 22.3117 0.998657 24 0.998657C25.6883 0.998657 27.3271 1.56881 28.6508 2.61669C29.9745 3.66458 30.9055 5.12879 31.293 6.77201C31.353 7.03005 31.3081 7.30133 31.1682 7.52632C31.0284 7.7513 30.8049 7.91159 30.547 7.97201C30.4723 7.98966 30.3958 7.99905 30.319 8.00001V8.00001Z" fill="#C6512B"/>
<path d="M41 42H7C5.93913 42 4.92172 41.5786 4.17157 40.8284C3.42143 40.0783 3 39.0609 3 38V34C3 33.4696 3.21071 32.9609 3.58579 32.5858C3.96086 32.2107 4.46957 32 5 32H43C43.5304 32 44.0391 32.2107 44.4142 32.5858C44.7893 32.9609 45 33.4696 45 34V38C45 39.0609 44.5786 40.0783 43.8284 40.8284C43.0783 41.5786 42.0609 42 41 42Z" fill="#C6512B"/>
<path d="M41 39H7C5.93913 39 4.92172 38.5786 4.17157 37.8284C3.42143 37.0783 3 36.0609 3 35V38C3 39.0609 3.42143 40.0783 4.17157 40.8284C4.92172 41.5786 5.93913 42 7 42H41C42.0609 42 43.0783 41.5786 43.8284 40.8284C44.5786 40.0783 45 39.0609 45 38V35C45 36.0609 44.5786 37.0783 43.8284 37.8284C43.0783 38.5786 42.0609 39 41 39Z" fill="#AD4023"/>
<path d="M41 15.589V39C41 40.5913 40.3679 42.1174 39.2426 43.2426C38.1174 44.3678 36.5913 45 35 45H13C11.4087 45 9.88258 44.3678 8.75736 43.2426C7.63214 42.1174 7 40.5913 7 39V15.589H41Z" fill="#E67244"/>
<path d="M35 41H13C11.4087 41 9.88258 40.3679 8.75736 39.2426C7.63214 38.1174 7 36.5913 7 35V39C7 40.5913 7.63214 42.1174 8.75736 43.2426C9.88258 44.3679 11.4087 45 13 45H35C36.5913 45 38.1174 44.3679 39.2426 43.2426C40.3679 42.1174 41 40.5913 41 39V35C41 36.5913 40.3679 38.1174 39.2426 39.2426C38.1174 40.3679 36.5913 41 35 41Z" fill="#C6512B"/>
<path d="M13.444 23H9C7.93913 23 6.92172 22.5786 6.17157 21.8284C5.42143 21.0783 5 20.0609 5 19V12C5 10.4087 5.63214 8.88258 6.75736 7.75736C7.88258 6.63214 9.4087 6 11 6H37C38.5913 6 40.1174 6.63214 41.2426 7.75736C42.3679 8.88258 43 10.4087 43 12V19C43 20.0609 42.5786 21.0783 41.8284 21.8284C41.0783 22.5786 40.0609 23 39 23H13.444Z" fill="#E67244"/>
<path d="M39 19H9C7.93913 19 6.92172 18.5786 6.17157 17.8284C5.42143 17.0783 5 16.0609 5 15V19C5 20.0609 5.42143 21.0783 6.17157 21.8284C6.92172 22.5786 7.93913 23 9 23H39C40.0609 23 41.0783 22.5786 41.8284 21.8284C42.5786 21.0783 43 20.0609 43 19V15C43 16.0609 42.5786 17.0783 41.8284 17.8284C41.0783 18.5786 40.0609 19 39 19Z" fill="#C6512B"/>
<path d="M30 39H18C16.9391 39 15.9217 38.5786 15.1716 37.8284C14.4214 37.0783 14 36.0609 14 35V33C14 32.4696 14.2107 31.9609 14.5858 31.5858C14.9609 31.2107 15.4696 31 16 31H32C32.5304 31 33.0391 31.2107 33.4142 31.5858C33.7893 31.9609 34 32.4696 34 33V35C34 36.0609 33.5786 37.0783 32.8284 37.8284C32.0783 38.5786 31.0609 39 30 39Z" fill="#C6512B"/>
<path d="M30 36H18C17.0365 35.9984 16.1061 35.648 15.3809 35.0136C14.6557 34.3792 14.1847 33.5037 14.055 32.549C14.0199 32.6968 14.0014 32.8481 14 33V35C14 36.0609 14.4214 37.0783 15.1716 37.8284C15.9217 38.5786 16.9391 39 18 39H30C31.0609 39 32.0783 38.5786 32.8284 37.8284C33.5786 37.0783 34 36.0609 34 35V33C33.9986 32.8481 33.9801 32.6968 33.945 32.549C33.8153 33.5037 33.3443 34.3792 32.6191 35.0136C31.8939 35.648 30.9635 35.9984 30 36V36Z" fill="#AD4023"/>
<path d="M18 22C18 20.8954 17.1046 20 16 20C14.8954 20 14 20.8954 14 22V24C14 25.1046 14.8954 26 16 26C17.1046 26 18 25.1046 18 24V22Z" fill="#EAEFF0"/>
<path d="M34 22C34 20.8954 33.1046 20 32 20C30.8954 20 30 20.8954 30 22V24C30 25.1046 30.8954 26 32 26C33.1046 26 34 25.1046 34 24V22Z" fill="#EAEFF0"/>
</svg>
