<?xml version="1.0" encoding="UTF-8" standalone="no"?> <svg width="48" height="48" viewBox="0 0 48 48" fill="none" xmlns="http://www.w3.org/2000/svg">
<path d="M31.447 25.036L36 21L27 12L22.964 16.553L4.459 37.384C4.12057 37.7654 3.94057 38.2616 3.95581 38.7713C3.97105 39.2809 4.18038 39.7655 4.541 40.126L7.874 43.459C8.2346 43.8195 8.71927 44.0286 9.22893 44.0437C9.73859 44.0587 10.2348 43.8786 10.616 43.54L31.447 25.036Z" fill="#2D4A60"/>
<path d="M33 18L28.447 22.036L7.616 40.54C7.23475 40.8786 6.73858 41.0587 6.22893 41.0437C5.71927 41.0286 5.2346 40.8195 4.874 40.459L7.874 43.459C8.2346 43.8195 8.71927 44.0286 9.22893 44.0437C9.73858 44.0587 10.2348 43.8786 10.616 43.54L31.447 25.04L36 21L33 18Z" fill="#263F52"/>
<path d="M33.484 25.082C33.212 25.082 32.939 25.071 32.668 25.05C32.2155 25.0082 31.7929 24.8056 31.477 24.479L23.523 16.526C23.1944 16.2075 22.9907 15.7818 22.949 15.326C22.7808 13.074 23.3402 10.8275 24.545 8.91739C25.7497 7.00729 27.536 5.53459 29.6408 4.71622C31.7456 3.89785 34.0575 3.77707 36.2361 4.37168C38.4147 4.96628 40.3448 6.24483 41.742 8.019C43.205 9.88774 43.9977 12.1939 43.9928 14.5672C43.9879 16.9405 43.1857 19.2433 41.715 21.106C40.7325 22.3474 39.4814 23.3501 38.0558 24.0387C36.6303 24.7273 35.0672 25.084 33.484 25.082Z" fill="#8FA5A5"/>
<path d="M41.742 8.01901C41.2941 7.45893 40.7916 6.94473 40.242 6.48401C40.951 8.35034 41.1644 10.3685 40.8614 12.3419C40.5584 14.3152 39.7493 16.1764 38.513 17.744C37.4414 19.0985 36.0767 20.1926 34.5216 20.9439C32.9664 21.6953 31.2612 22.0844 29.534 22.082C29.378 22.082 29.222 22.07 29.066 22.064L31.482 24.479C31.7979 24.8056 32.2205 25.0082 32.673 25.05C32.944 25.071 33.217 25.082 33.489 25.082C35.0722 25.084 36.6353 24.7273 38.0608 24.0387C39.4864 23.3501 40.7375 22.3474 41.72 21.106C43.19 19.2428 43.9913 16.9396 43.9953 14.5663C43.9993 12.193 43.2057 9.88719 41.742 8.01901V8.01901Z" fill="#7B8E8D"/>
<path d="M24.3 9.335L38.665 23.7C39.2541 23.3644 39.809 22.9722 40.322 22.529L25.47 7.677C25.0279 8.19098 24.6361 8.74619 24.3 9.335V9.335Z" fill="#7B8E8D"/>
<path d="M35.412 20.447L38.665 23.7C38.95 23.538 39.227 23.36 39.497 23.171L39.54 23.14C39.8067 22.95 40.0673 22.7463 40.322 22.529L37.042 19.249C36.5346 19.695 35.9892 20.0958 35.412 20.447V20.447Z" fill="#566363"/>
<path d="M22.292 25.708C22.4795 25.8955 22.7338 26.0008 22.999 26.0008C23.2642 26.0008 23.5185 25.8955 23.706 25.708L25.827 23.587C26.0092 23.3984 26.11 23.1458 26.1077 22.8836C26.1054 22.6214 26.0002 22.3706 25.8148 22.1852C25.6294 21.9998 25.3786 21.8946 25.1164 21.8923C24.8542 21.89 24.6016 21.9908 24.413 22.173L22.292 24.294C22.1045 24.4815 21.9992 24.7358 21.9992 25.001C21.9992 25.2661 22.1045 25.5205 22.292 25.708Z" fill="#EAEFF0"/>
<path d="M14.555 11.168L11.555 9.168C11.4044 9.06752 11.2293 9.00981 11.0485 9.00103C10.8677 8.99224 10.6879 9.03271 10.5282 9.11812C10.3686 9.20353 10.2352 9.33068 10.1421 9.48599C10.0491 9.6413 9.99997 9.81895 10 10V16.184C9.67974 16.0656 9.34144 16.0033 9 16C8.40666 16 7.82664 16.1759 7.33329 16.5056C6.83994 16.8352 6.45543 17.3038 6.22836 17.8519C6.0013 18.4001 5.94189 19.0033 6.05765 19.5853C6.1734 20.1672 6.45912 20.7018 6.87868 21.1213C7.29824 21.5409 7.83279 21.8266 8.41473 21.9424C8.99667 22.0581 9.59987 21.9987 10.1481 21.7716C10.6962 21.5446 11.1648 21.1601 11.4944 20.6667C11.8241 20.1734 12 19.5933 12 19V11.869L13.445 12.832C13.6657 12.9792 13.9358 13.0327 14.1959 12.9808C14.456 12.9288 14.6848 12.7757 14.832 12.555C14.9792 12.3343 15.0327 12.0642 14.9808 11.8041C14.9288 11.544 14.7757 11.3152 14.555 11.168V11.168Z" fill="#263F52"/>
<path d="M40.555 31.168L37.555 29.168C37.4044 29.0675 37.2293 29.0098 37.0485 29.001C36.8677 28.9922 36.6879 29.0327 36.5282 29.1181C36.3686 29.2035 36.2352 29.3307 36.1421 29.486C36.0491 29.6413 36 29.819 36 30V36.184C35.6797 36.0656 35.3414 36.0033 35 36C34.4067 36 33.8266 36.1759 33.3333 36.5056C32.8399 36.8352 32.4554 37.3038 32.2284 37.8519C32.0013 38.4001 31.9419 39.0033 32.0576 39.5853C32.1734 40.1672 32.4591 40.7018 32.8787 41.1213C33.2982 41.5409 33.8328 41.8266 34.4147 41.9424C34.9967 42.0581 35.5999 41.9987 36.148 41.7716C36.6962 41.5446 37.1648 41.1601 37.4944 40.6667C37.8241 40.1734 38 39.5933 38 39V31.869L39.445 32.832C39.5543 32.9049 39.6768 32.9555 39.8056 32.9811C39.9345 33.0066 40.0671 33.0065 40.1959 32.9808C40.3247 32.955 40.4471 32.9042 40.5563 32.8311C40.6654 32.7581 40.7591 32.6643 40.832 32.555C40.9049 32.4457 40.9555 32.3232 40.9811 32.1944C41.0066 32.0655 41.0065 31.9329 40.9808 31.8041C40.955 31.6753 40.9042 31.5529 40.8311 31.4437C40.7581 31.3346 40.6643 31.2409 40.555 31.168V31.168Z" fill="#263F52"/>
</svg>
