<?xml version="1.0" encoding="UTF-8" standalone="no"?> <svg width="48" height="48" viewBox="0 0 48 48" fill="none" xmlns="http://www.w3.org/2000/svg">
<path d="M41 29.1C40.7348 29.1 40.4804 28.9946 40.2929 28.8071C40.1054 28.6196 40 28.3652 40 28.1V23C40 18.7565 38.3143 14.6869 35.3137 11.6863C32.3131 8.68571 28.2435 7 24 7C19.7565 7 15.6869 8.68571 12.6863 11.6863C9.68571 14.6869 8 18.7565 8 23V28.1C8 28.3652 7.89464 28.6196 7.70711 28.8071C7.51957 28.9946 7.26522 29.1 7 29.1C6.73478 29.1 6.48043 28.9946 6.29289 28.8071C6.10536 28.6196 6 28.3652 6 28.1V23C6 18.2261 7.89642 13.6477 11.2721 10.2721C14.6477 6.89642 19.2261 5 24 5C28.7739 5 33.3523 6.89642 36.7279 10.2721C40.1036 13.6477 42 18.2261 42 23V28.1C42 28.3652 41.8946 28.6196 41.7071 28.8071C41.5196 28.9946 41.2652 29.1 41 29.1Z" fill="#2D4A60"/>
<path d="M40 25V28.1C40 28.3652 40.1054 28.6196 40.2929 28.8071C40.4804 28.9946 40.7348 29.1 41 29.1C41.2652 29.1 41.5196 28.9946 41.7071 28.8071C41.8946 28.6196 42 28.3652 42 28.1V25.263C41.3472 25.0908 40.6751 25.0024 40 25V25Z" fill="#263F52"/>
<path d="M8 25V28.1C8 28.3652 7.89464 28.6196 7.70711 28.8071C7.51957 28.9946 7.26522 29.1 7 29.1C6.73478 29.1 6.48043 28.9946 6.29289 28.8071C6.10536 28.6196 6 28.3652 6 28.1V25.263C6.6528 25.0908 7.32487 25.0024 8 25V25Z" fill="#263F52"/>
<path d="M8 40C6.40919 39.9984 4.88399 39.3658 3.75911 38.2409C2.63424 37.116 2.00159 35.5908 2 34V33C2.00159 31.4092 2.63424 29.884 3.75911 28.7591C4.88399 27.6342 6.40919 27.0016 8 27H11C11.2652 27 11.5196 27.1054 11.7071 27.2929C11.8946 27.4804 12 27.7348 12 28V39C12 39.2652 11.8946 39.5196 11.7071 39.7071C11.5196 39.8946 11.2652 40 11 40H8Z" fill="#EAEFF0"/>
<path d="M11 37H8C6.58345 36.9974 5.21342 36.4941 4.13197 35.5792C3.05052 34.6643 2.32727 33.3965 2.09 32C2.03211 32.3302 2.00201 32.6647 2 33V34C2.00159 35.5908 2.63424 37.116 3.75911 38.2409C4.88399 39.3658 6.40919 39.9984 8 40H11C11.2652 40 11.5196 39.8946 11.7071 39.7071C11.8946 39.5196 12 39.2652 12 39V36C12 36.2652 11.8946 36.5196 11.7071 36.7071C11.5196 36.8946 11.2652 37 11 37Z" fill="#CDD3D3"/>
<path d="M13 25H11C9.34315 25 8 26.3431 8 28V39C8 40.6569 9.34315 42 11 42H13C14.6569 42 16 40.6569 16 39V28C16 26.3431 14.6569 25 13 25Z" fill="#009AE0"/>
<path d="M13 39H11C10.2044 39 9.44129 38.6839 8.87868 38.1213C8.31607 37.5587 8 36.7956 8 36V39C8 39.7956 8.31607 40.5587 8.87868 41.1213C9.44129 41.6839 10.2044 42 11 42H13C13.7956 42 14.5587 41.6839 15.1213 41.1213C15.6839 40.5587 16 39.7956 16 39V36C16 36.7956 15.6839 37.5587 15.1213 38.1213C14.5587 38.6839 13.7956 39 13 39Z" fill="#0081BD"/>
<path d="M28.055 30.168L25.055 28.168C24.9044 28.0675 24.7293 28.0098 24.5485 28.001C24.3677 27.9922 24.1879 28.0327 24.0282 28.1181C23.8686 28.2035 23.7352 28.3307 23.6421 28.486C23.5491 28.6413 23.5 28.819 23.5 29V35.184C23.1797 35.0656 22.8414 35.0033 22.5 35C21.9067 35 21.3266 35.1759 20.8333 35.5056C20.3399 35.8352 19.9554 36.3038 19.7284 36.8519C19.5013 37.4001 19.4419 38.0033 19.5576 38.5853C19.6734 39.1672 19.9591 39.7018 20.3787 40.1213C20.7982 40.5409 21.3328 40.8266 21.9147 40.9424C22.4967 41.0581 23.0999 40.9987 23.648 40.7716C24.1962 40.5446 24.6648 40.1601 24.9944 39.6667C25.3241 39.1734 25.5 38.5933 25.5 38V30.869L26.945 31.832C27.1657 31.9792 27.4358 32.0327 27.6959 31.9808C27.956 31.9288 28.1848 31.7757 28.332 31.555C28.4792 31.3343 28.5327 31.0642 28.4808 30.8041C28.4288 30.544 28.2757 30.3152 28.055 30.168V30.168Z" fill="#263F52"/>
<path d="M40 40C41.5908 39.9984 43.116 39.3658 44.2409 38.2409C45.3658 37.116 45.9984 35.5908 46 34V33C45.9984 31.4092 45.3658 29.884 44.2409 28.7591C43.116 27.6342 41.5908 27.0016 40 27H37C36.7348 27 36.4804 27.1054 36.2929 27.2929C36.1054 27.4804 36 27.7348 36 28V39C36 39.2652 36.1054 39.5196 36.2929 39.7071C36.4804 39.8946 36.7348 40 37 40H40Z" fill="#EAEFF0"/>
<path d="M37 37H40C41.4166 36.9974 42.7866 36.4941 43.868 35.5792C44.9495 34.6643 45.6727 33.3965 45.91 32C45.9679 32.3302 45.998 32.6647 46 33V34C45.9984 35.5908 45.3658 37.116 44.2409 38.2409C43.116 39.3658 41.5908 39.9984 40 40H37C36.7348 40 36.4804 39.8946 36.2929 39.7071C36.1054 39.5196 36 39.2652 36 39V36C36 36.2652 36.1054 36.5196 36.2929 36.7071C36.4804 36.8946 36.7348 37 37 37Z" fill="#CDD3D3"/>
<path d="M37 25H35C33.3431 25 32 26.3431 32 28V39C32 40.6569 33.3431 42 35 42H37C38.6569 42 40 40.6569 40 39V28C40 26.3431 38.6569 25 37 25Z" fill="#009AE0"/>
<path d="M35 39H37C37.7956 39 38.5587 38.6839 39.1213 38.1213C39.6839 37.5587 40 36.7956 40 36V39C40 39.7956 39.6839 40.5587 39.1213 41.1213C38.5587 41.6839 37.7956 42 37 42H35C34.2044 42 33.4413 41.6839 32.8787 41.1213C32.3161 40.5587 32 39.7956 32 39V36C32 36.7956 32.3161 37.5587 32.8787 38.1213C33.4413 38.6839 34.2044 39 35 39Z" fill="#0081BD"/>
</svg>
